<svg width="313" height="126" viewBox="0 0 313 126" fill="none" xmlns="http://www.w3.org/2000/svg">
<path d="M145.924 0.163124C149.857 0.13245 153.79 0.109354 157.724 0.0951943C159.55 0.0884438 161.376 0.079246 163.203 0.0642173C164.966 0.0497172 166.729 0.0421295 168.492 0.0387329C169.164 0.0363128 169.836 0.0315868 170.508 0.0245041C171.451 0.0149694 172.393 0.0136768 173.336 0.0142838C173.613 0.00957017 173.89 0.00485651 174.175 0C175.924 0.0121672 177.131 0.309058 178.468 1.4742C179.538 2.84492 179.813 3.81728 179.823 5.53109C179.824 5.70217 179.826 5.87325 179.827 6.04951C179.831 6.6153 179.832 7.18106 179.834 7.74686C179.835 8.1411 179.837 8.53535 179.838 8.92959C179.841 9.75663 179.843 10.5837 179.844 11.4107C179.845 12.4673 179.851 13.5237 179.859 14.5803C179.864 15.3951 179.865 16.2098 179.866 17.0246C179.866 17.4139 179.868 17.8032 179.872 18.1925C179.876 18.7391 179.876 19.2855 179.874 19.832C179.876 20.2975 179.876 20.2975 179.877 20.7724C179.706 22.3523 179.059 23.6648 177.943 24.8113C176.369 25.5979 176.369 25.5979 168.495 25.5979C168.495 31.3955 168.495 37.1931 168.495 43.1663C169.967 43.1663 171.44 43.1663 172.957 43.1663C172.957 43.9451 172.957 44.7239 172.957 45.5262C164.036 45.5262 155.115 45.5262 145.924 45.5262C145.924 44.7475 145.924 43.9687 145.924 43.1663C147.396 43.1663 148.869 43.1663 150.386 43.1663C150.386 39.2724 150.386 35.3785 150.386 31.3666C147.268 31.3666 144.15 31.3666 140.937 31.3666C140.677 32.232 140.418 33.0973 140.15 33.9888C139.933 34.5725 139.707 35.1532 139.469 35.729C139.345 36.0317 139.221 36.3344 139.093 36.6463C138.965 36.9537 138.838 37.2611 138.706 37.5779C138.579 37.8883 138.451 38.1988 138.32 38.5187C137.716 39.9853 137.107 41.449 136.475 42.9041C137.601 42.9906 138.727 43.0771 139.887 43.1663C139.887 43.9451 139.887 44.7239 139.887 45.5262C136.596 45.5262 133.305 45.5262 129.914 45.5262C129.914 44.7475 129.914 43.9687 129.914 43.1663C131.127 43.1663 132.339 43.1663 133.588 43.1663C133.698 42.7876 133.807 42.4089 133.92 42.0187C134.338 40.6275 134.837 39.2806 135.368 37.9292C135.512 37.5596 135.512 37.5596 135.659 37.1826C135.974 36.3744 136.29 35.5667 136.607 34.759C136.83 34.1861 137.054 33.6131 137.277 33.04C137.741 31.8498 138.206 30.6598 138.67 29.4699C139.328 27.7862 139.982 26.1013 140.635 24.4159C140.737 24.1507 140.84 23.8855 140.946 23.6123C141.152 23.0802 141.358 22.548 141.565 22.0158C143.371 17.356 145.185 12.6997 147.006 8.04595C147.11 7.7813 147.213 7.51665 147.32 7.24398C147.61 6.50365 147.9 5.76345 148.19 5.02331C148.276 4.80301 148.362 4.5827 148.451 4.35572C149.043 2.84563 149.043 2.84563 149.336 2.26084C148.21 2.26084 147.084 2.26084 145.924 2.26084C145.924 1.56859 145.924 0.876347 145.924 0.163124ZM156.947 2.26084C156.947 15.7596 156.947 29.2584 156.947 43.1663C158.593 43.1663 160.238 43.1663 161.934 43.1663C161.934 29.6675 161.934 16.1687 161.934 2.26084C160.288 2.26084 158.642 2.26084 156.947 2.26084ZM168.495 2.26084C168.495 9.26983 168.495 16.2788 168.495 23.5002C171.592 23.8154 171.592 23.8154 172.694 22.9758C172.774 22.3197 172.802 21.728 172.796 21.0711C172.798 20.7769 172.798 20.7769 172.8 20.4767C172.804 19.8265 172.802 19.1765 172.799 18.5263C172.799 18.0757 172.8 17.625 172.801 17.1743C172.802 16.2291 172.801 15.2839 172.797 14.3387C172.792 13.1253 172.795 11.9121 172.8 10.6987C172.803 9.7679 172.802 8.83711 172.8 7.90629C172.799 7.45882 172.8 7.01135 172.802 6.56389C172.804 5.93915 172.801 5.31463 172.796 4.68991C172.798 4.50382 172.799 4.31773 172.801 4.12601C172.803 3.55782 172.803 3.55782 172.694 2.78527C171.592 1.9457 171.592 1.9457 168.495 2.26084ZM150.123 6.9807C150.055 7.15828 149.987 7.33587 149.917 7.51883C149.571 8.42147 149.224 9.32366 148.876 10.2256C148.81 10.3971 148.744 10.5686 148.676 10.7453C147.669 13.3547 146.639 15.9545 145.596 18.5499C145.477 18.8456 145.358 19.1414 145.236 19.4461C144.636 20.939 144.035 22.4313 143.432 23.9231C143.209 24.4776 142.985 25.0321 142.762 25.5867C142.657 25.845 142.552 26.1033 142.444 26.3694C142.302 26.7241 142.302 26.7241 142.156 27.086C142.073 27.2932 141.989 27.5005 141.903 27.714C141.696 28.2131 141.696 28.2131 141.725 28.7445C144.583 28.7445 147.441 28.7445 150.386 28.7445C150.386 21.5624 150.386 14.3804 150.386 6.9807C150.299 6.9807 150.212 6.9807 150.123 6.9807Z" fill="#8B8B8B"/>
<path d="M92.3867 61.2539C95.3315 61.2539 98.2762 61.2539 101.31 61.2539C102.239 64.4592 103.138 67.6709 104.006 70.8934C104.078 71.163 104.078 71.163 104.152 71.4381C104.553 72.9276 104.953 74.4173 105.352 75.9071C105.654 77.0311 105.955 78.1549 106.258 79.2787C106.398 79.8 106.538 80.3216 106.677 80.8431C106.761 81.156 106.846 81.4689 106.932 81.7913C107.006 82.067 107.08 82.3427 107.156 82.6268C107.323 83.2723 107.323 83.2723 107.609 83.8044C107.672 83.5876 107.735 83.3708 107.8 83.1475C108.398 81.0844 108.996 79.0213 109.594 76.9583C109.902 75.8982 110.209 74.8381 110.517 73.7779C110.814 72.751 111.112 71.7241 111.41 70.6972C111.523 70.3093 111.635 69.9214 111.747 69.5336C112.548 66.7716 113.357 64.0122 114.171 61.2539C117.029 61.2539 119.887 61.2539 122.832 61.2539C122.832 61.6866 122.832 62.1192 122.832 62.565C122.631 62.6299 122.431 62.6948 122.225 62.7616C121.439 63.1266 121.166 63.4003 120.732 64.1383C120.505 64.881 120.436 65.5497 120.433 66.3245C120.431 66.5501 120.43 66.7758 120.428 67.0083C120.428 67.2538 120.427 67.4992 120.427 67.7522C120.426 68.0124 120.425 68.2726 120.423 68.5407C120.419 69.4017 120.418 70.2628 120.416 71.1238C120.415 71.7228 120.413 72.3218 120.412 72.9208C120.409 74.1773 120.407 75.4337 120.406 76.6901C120.405 78.2978 120.399 79.9054 120.391 81.513C120.386 82.7507 120.385 83.9884 120.385 85.2261C120.384 85.8186 120.382 86.4112 120.378 87.0037C120.374 87.834 120.374 88.6642 120.376 89.4945C120.373 89.7378 120.371 89.9812 120.369 90.2319C120.378 91.7598 120.589 92.9087 121.257 94.2929C122.049 94.8316 122.049 94.8316 122.832 95.0796C122.832 95.5122 122.832 95.9449 122.832 96.3907C119.194 96.3907 115.556 96.3907 111.808 96.3907C111.808 95.958 111.808 95.5253 111.808 95.0796C112.052 94.9822 112.296 94.8849 112.547 94.7846C113.571 94.1823 113.748 93.821 114.171 92.7196C114.275 91.9201 114.27 91.1319 114.26 90.3266C114.26 90.091 114.26 89.8555 114.26 89.6129C114.26 88.8382 114.254 88.0636 114.247 87.2889C114.246 86.7503 114.245 86.2117 114.244 85.6731C114.241 84.2583 114.233 82.8436 114.225 81.4288C114.217 79.984 114.213 78.5391 114.209 77.0943C114.201 74.2615 114.187 71.4287 114.171 68.5959C113.399 71.3109 112.628 74.0259 111.858 76.741C111.773 77.0408 111.773 77.0408 111.686 77.3467C109.884 83.6932 108.085 90.0405 106.297 96.3907C105.864 96.3041 105.431 96.2176 104.985 96.1284C104.928 95.9194 104.871 95.7105 104.813 95.4951C104.266 93.476 103.718 91.4569 103.17 89.4379C102.889 88.4012 102.607 87.3645 102.326 86.3277C100.699 80.323 99.0471 74.3256 97.3734 68.3337C97.3551 71.4086 97.3411 74.4835 97.3326 77.5585C97.3285 78.9864 97.3229 80.4143 97.314 81.8422C97.3054 83.2211 97.3007 84.5999 97.2987 85.9787C97.2972 86.504 97.2944 87.0292 97.2901 87.5544C97.2844 88.2918 97.2836 89.0292 97.284 89.7667C97.2812 89.9822 97.2783 90.1978 97.2754 90.4199C97.2832 91.877 97.534 92.9695 98.1607 94.2929C98.9528 94.8316 98.9528 94.8316 99.7355 95.0796C99.7355 95.5122 99.7355 95.9449 99.7355 96.3907C97.397 96.3907 95.0585 96.3907 92.6492 96.3907C92.6492 95.958 92.6492 95.5253 92.6492 95.0796C93.1105 94.9174 93.5719 94.7552 94.0332 94.593C94.712 94.1435 94.7792 93.7693 95.0113 92.9819C95.0884 92.0646 95.0829 91.1502 95.0792 90.2301C95.0801 89.9533 95.081 89.6764 95.082 89.3912C95.0843 88.4767 95.0828 87.5622 95.081 86.6477C95.0813 86.012 95.0819 85.3762 95.0825 84.7404C95.0833 83.4081 95.0822 82.0759 95.0797 80.7437C95.0767 79.0357 95.0784 77.3278 95.0816 75.6199C95.0835 74.3071 95.0829 72.9943 95.0815 71.6815C95.0812 71.0517 95.0816 70.422 95.0828 69.7922C95.0841 68.9122 95.0821 68.0322 95.0792 67.1522C95.0803 66.8917 95.0813 66.6312 95.0824 66.3629C95.0874 64.661 95.0874 64.661 94.4864 63.0894C93.9812 62.8215 93.9812 62.8215 93.4037 62.7453C93.0681 62.6858 92.7325 62.6263 92.3867 62.565C92.3867 62.1323 92.3867 61.6997 92.3867 61.2539Z" fill="#8B8B8B"/>
<path d="M194.219 53.9191C196.553 53.8948 198.887 53.8761 201.221 53.8648C202.305 53.8593 203.389 53.8519 204.473 53.84C205.52 53.8286 206.566 53.8223 207.613 53.8196C208.011 53.8177 208.41 53.8139 208.809 53.8082C209.368 53.8006 209.928 53.7995 210.488 53.8C210.806 53.7977 211.124 53.7954 211.452 53.793C212.814 53.9888 213.617 54.6429 214.511 55.6563C215.237 56.6776 215.253 57.2647 215.267 58.5188C215.27 58.783 215.27 58.783 215.273 59.0526C215.28 59.6368 215.284 60.221 215.288 60.8053C215.289 61.005 215.29 61.2048 215.292 61.4105C215.299 62.4685 215.304 63.5264 215.308 64.5843C215.311 65.4585 215.319 66.3326 215.329 67.2067C215.342 68.2631 215.349 69.3194 215.351 70.3759C215.352 70.7777 215.356 71.1795 215.363 71.5812C215.415 75.1127 215.415 75.1127 214.682 76.2717C211.686 79.0504 209.413 78.0428 204.98 78.0428C204.98 83.4943 204.98 88.9457 204.98 94.5623C206.366 94.5623 207.752 94.5623 209.179 94.5623C209.179 95.3411 209.179 96.1199 209.179 96.9223C204.156 96.9223 199.133 96.9223 193.957 96.9223C193.957 96.1435 193.957 95.3647 193.957 94.5623C195.343 94.4758 196.729 94.3893 198.156 94.3001C198.156 93.8283 198.155 93.3564 198.155 92.8702C198.149 88.4327 198.145 83.9953 198.143 79.5579C198.141 77.2763 198.14 74.9947 198.137 72.7131C198.134 70.7251 198.132 68.737 198.132 66.749C198.131 65.6958 198.13 64.6426 198.129 63.5895C198.127 62.599 198.126 61.6086 198.127 60.6182C198.127 60.2539 198.126 59.8896 198.125 59.5254C198.124 59.0295 198.124 58.5336 198.125 58.0378C198.125 57.7598 198.124 57.4819 198.124 57.1955C198.156 56.5412 198.156 56.5412 198.419 56.0168C197.033 56.0168 195.647 56.0168 194.219 56.0168C194.219 55.3246 194.219 54.6323 194.219 53.9191ZM204.98 56.0168C204.98 62.5932 204.98 69.1695 204.98 75.9451C206.106 75.9451 207.232 75.9451 208.392 75.9451C209.141 75.1964 208.985 74.6851 208.989 73.6364C208.99 73.453 208.992 73.2696 208.993 73.0807C208.997 72.4731 208.997 71.8656 208.996 71.258C208.997 70.8368 208.998 70.4155 208.999 69.9942C209.001 69.1107 209.001 68.2273 209 67.3438C208.998 66.2098 209.003 65.0759 209.009 63.9419C209.013 63.0718 209.013 62.2017 209.012 61.3316C209.012 60.9134 209.014 60.4952 209.016 60.0771C209.02 59.4931 209.018 58.9094 209.015 58.3255C209.015 57.9929 209.015 57.6602 209.015 57.3175C208.983 57.0613 208.95 56.8052 208.917 56.5412C207.851 55.7259 207.851 55.7259 204.98 56.0168Z" fill="#8B8B8B"/>
<path d="M15.2224 53.9203C16.6284 53.9139 18.0343 53.9091 19.4402 53.9059C19.9186 53.9046 20.3969 53.9028 20.8753 53.9006C21.5626 53.8974 22.2499 53.8959 22.9372 53.8947C23.2583 53.8927 23.2583 53.8927 23.5859 53.8906C24.453 53.8905 25.1546 53.9066 25.9831 54.1825C25.9831 67.4218 25.9831 80.661 25.9831 94.3014C27.2823 94.3879 28.5814 94.4744 29.9199 94.5636C29.9199 95.3424 29.9199 96.1211 29.9199 96.9235C24.9831 96.9235 20.0464 96.9235 14.96 96.9235C14.96 96.1447 14.96 95.366 14.96 94.5636C16.3457 94.5636 17.7315 94.5636 19.1593 94.5636C19.1593 90.8428 19.1593 87.1219 19.1593 83.2884C16.2145 83.2884 13.2698 83.2884 10.2358 83.2884C9.97593 84.1537 9.7161 85.019 9.4484 85.9105C9.18314 86.6142 8.91315 87.3083 8.62515 88.0021C8.55053 88.1846 8.47592 88.3671 8.39904 88.5552C8.16491 89.1272 7.9291 89.6985 7.69323 90.2698C7.53233 90.6621 7.37154 91.0544 7.21086 91.4467C6.82068 92.3988 6.429 93.3502 6.03648 94.3014C7.16241 94.3879 8.28835 94.4744 9.4484 94.5636C9.4484 95.3424 9.4484 96.1211 9.4484 96.9235C6.33043 96.9235 3.21246 96.9235 0 96.9235C0 96.1447 0 95.366 0 94.5636C1.21254 94.5636 2.42509 94.5636 3.67438 94.5636C3.76099 94.1309 3.8476 93.6983 3.93683 93.2525C4.0639 92.8666 4.20042 92.4837 4.34525 92.104C4.42917 91.8826 4.51309 91.6612 4.59955 91.4331C4.69143 91.1939 4.78332 90.9547 4.87798 90.7082C5.02305 90.327 5.02305 90.327 5.17105 89.9381C5.49126 89.0978 5.81303 88.258 6.1349 87.4182C6.36043 86.8278 6.58591 86.2373 6.81135 85.6468C9.05341 79.7805 11.3246 73.9255 13.6057 68.0743C13.9148 67.2814 14.2236 66.4886 14.5323 65.6957C15.0296 64.4188 15.5272 63.1421 16.0251 61.8655C16.2103 61.3905 16.3955 60.9156 16.5806 60.4406C16.8336 59.7915 17.087 59.1426 17.3405 58.4937C17.4152 58.3021 17.4898 58.1105 17.5667 57.9131C18.0793 56.6027 18.0793 56.6027 18.3719 56.018C17.3326 56.018 16.2932 56.018 15.2224 56.018C15.2224 55.3258 15.2224 54.6336 15.2224 53.9203ZM18.8968 61.2623C18.844 61.4004 18.7912 61.5385 18.7369 61.6808C18.0635 63.4426 17.3894 65.2041 16.7151 66.9655C16.6079 67.2456 16.5007 67.5258 16.3903 67.8144C14.2569 73.3875 14.2569 73.3875 13.2161 76.0211C13.1472 76.1955 13.0782 76.3699 13.0072 76.5496C12.6973 77.3325 12.3858 78.1148 12.0726 78.8965C11.9665 79.1631 11.8604 79.4297 11.751 79.7044C11.6147 80.044 11.6147 80.044 11.4756 80.3905C11.2565 80.9158 11.2565 80.9158 11.2856 81.4529C13.8839 81.4529 16.4822 81.4529 19.1593 81.4529C19.1593 74.79 19.1593 68.1271 19.1593 61.2623C19.0726 61.2623 18.986 61.2623 18.8968 61.2623Z" fill="#8B8B8B"/>
<path d="M146.977 61.2635C148.606 61.2374 150.235 61.2184 151.864 61.2059C152.417 61.2006 152.97 61.1935 153.523 61.1844C160.661 61.0695 160.661 61.0695 163.119 63.4073C165.186 65.9263 165.635 69.1219 165.348 72.2765C164.847 74.8929 163.817 77.1817 161.559 78.7171C161.337 78.8415 161.115 78.9659 160.887 79.0941C161.445 80.8607 162.11 82.5677 162.823 84.2769C162.932 84.5382 163.04 84.7995 163.152 85.0687C163.495 85.8963 163.839 86.7234 164.184 87.5505C164.529 88.3815 164.874 89.2125 165.219 90.0436C165.433 90.5587 165.647 91.0738 165.861 91.5888C165.958 91.8226 166.056 92.0564 166.156 92.2972C166.283 92.6036 166.283 92.6036 166.414 92.9162C166.592 93.3489 166.754 93.7884 166.906 94.2312C166.998 94.4278 167.09 94.6244 167.186 94.8269C167.445 94.9135 167.705 95 167.973 95.0892C167.973 95.5218 167.973 95.9545 167.973 96.4002C165.808 96.4002 163.642 96.4002 161.412 96.4002C160.629 94.431 159.846 92.4616 159.064 90.4922C158.701 89.5777 158.337 88.6633 157.974 87.7489C157.623 86.8666 157.273 85.9842 156.922 85.1017C156.789 84.765 156.655 84.4282 156.521 84.0915C156.333 83.6201 156.146 83.1487 155.959 82.6772C155.852 82.4088 155.746 82.1403 155.636 81.8638C155.449 81.3822 155.276 80.8951 155.113 80.4052C154.939 80.3186 154.766 80.2321 154.588 80.1429C154.605 81.8224 154.629 83.5017 154.657 85.1811C154.665 85.7518 154.673 86.3225 154.679 86.8932C154.688 87.716 154.701 88.5387 154.716 89.3614C154.718 89.6144 154.719 89.8674 154.721 90.1281C154.755 91.6891 154.961 92.8864 155.638 94.3025C156.07 94.5735 156.506 94.8376 156.95 95.0892C156.95 95.5218 156.95 95.9545 156.95 96.4002C153.745 96.4002 150.541 96.4002 147.239 96.4002C147.239 95.9676 147.239 95.5349 147.239 95.0892C147.445 95.0405 147.65 94.9918 147.862 94.9417C148.625 94.6204 148.625 94.6204 148.852 93.7941C149.169 92.538 149.152 91.2869 149.148 89.9985C149.15 89.7301 149.151 89.4617 149.152 89.1851C149.156 88.3015 149.156 87.418 149.155 86.5344C149.156 85.9183 149.157 85.3021 149.159 84.686C149.161 83.3961 149.16 82.1063 149.159 80.8164C149.158 79.1649 149.162 77.5135 149.168 75.8621C149.172 74.5902 149.172 73.3184 149.171 72.0465C149.171 71.4376 149.173 70.8288 149.175 70.2199C149.179 69.3683 149.177 68.5168 149.174 67.6652C149.176 67.4148 149.178 67.1644 149.18 66.9064C149.168 65.4411 149.01 64.3872 148.289 63.099C147.621 62.7045 147.621 62.7045 146.977 62.5746C146.977 62.1419 146.977 61.7093 146.977 61.2635ZM154.85 63.6234C154.587 64.411 154.556 64.9286 154.558 65.751C154.558 66.024 154.558 66.2969 154.558 66.5781C154.559 66.8723 154.561 67.1665 154.562 67.4696C154.563 67.7711 154.563 68.0726 154.563 68.3833C154.565 69.3478 154.568 70.3123 154.571 71.2768C154.573 71.9301 154.574 72.5834 154.575 73.2368C154.578 74.8396 154.582 76.4424 154.588 78.0452C155.007 78.055 155.426 78.062 155.845 78.0678C156.195 78.074 156.195 78.074 156.552 78.0804C157.595 78.0248 158.052 77.7306 158.787 76.9964C160.607 74.003 160.342 69.8599 159.689 66.5447C159.326 65.1501 158.899 64.2839 157.737 63.3612C156.671 62.8286 155.813 62.9824 154.85 63.6234Z" fill="#8B8B8B"/>
<path d="M51.1797 61.2638C52.8088 61.2377 54.4378 61.2188 56.0671 61.2062C56.6202 61.2009 57.1733 61.1938 57.7264 61.1847C64.7546 61.0716 64.7546 61.0716 67.1239 63.2304C70.8222 66.8264 71.8718 72.5036 71.988 77.464C72.0452 83.0118 71.3782 89.3669 67.4078 93.5981C65.7783 95.1225 63.8853 96.4369 61.5783 96.4303C61.3471 96.4303 61.116 96.4303 60.8778 96.4303C60.6293 96.4289 60.3808 96.4275 60.1247 96.4262C59.8695 96.4258 59.6143 96.4254 59.3514 96.425C58.5357 96.4236 57.7201 96.4203 56.9045 96.4169C56.3517 96.4156 55.799 96.4144 55.2462 96.4133C53.8907 96.4105 52.5352 96.4059 51.1797 96.4005C51.1797 95.9679 51.1797 95.5352 51.1797 95.0895C51.4233 94.9975 51.6669 94.9056 51.9178 94.8109C52.9364 94.1923 53.2363 93.5789 53.5418 92.4673C53.649 91.5731 53.6495 90.6887 53.6437 89.7889C53.645 89.526 53.6464 89.2631 53.6478 88.9923C53.6513 88.127 53.649 87.2618 53.6464 86.3964C53.6469 85.7927 53.6477 85.1889 53.6486 84.5852C53.6498 83.3211 53.6481 82.057 53.6444 80.793C53.64 79.1756 53.6425 77.5584 53.6472 75.941C53.6501 74.6946 53.6492 73.4481 53.6471 72.2017C53.6466 71.6055 53.6473 71.0093 53.6491 70.4131C53.6511 69.5784 53.648 68.744 53.6437 67.9094C53.6453 67.6648 53.6469 67.4202 53.6485 67.1682C53.6337 65.641 53.4265 64.4812 52.7544 63.0993C51.9565 62.6798 51.9565 62.6798 51.1797 62.5749C51.1797 62.1422 51.1797 61.7096 51.1797 61.2638ZM59.0534 63.6237C58.9355 64.1816 58.9355 64.1816 58.9569 64.838C58.9554 65.0939 58.954 65.3498 58.9525 65.6135C58.9549 65.8952 58.9573 66.1769 58.9598 66.4671C58.9593 66.763 58.9587 67.0589 58.9582 67.3638C58.9574 68.346 58.9622 69.328 58.9672 70.3102C58.968 70.9902 58.9685 71.6701 58.9687 72.35C58.9699 73.7767 58.9736 75.2033 58.9795 76.63C58.9871 78.4624 58.9898 80.2947 58.991 82.1271C58.9919 83.5316 58.9947 84.9362 58.9978 86.3407C58.9993 87.0165 59.0005 87.6923 59.0015 88.3681C59.0033 89.3112 59.0069 90.2542 59.0111 91.1972C59.0114 91.4789 59.0116 91.7606 59.012 92.0509C59.0135 92.3068 59.0149 92.5627 59.0165 92.8263C59.0173 93.0495 59.0181 93.2726 59.0189 93.5025C59.0194 94.0578 59.0194 94.0578 59.3158 94.565C60.9904 94.6516 62.0588 94.553 63.4003 93.4373C66.9957 89.8182 66.4727 82.2135 66.468 77.5219C66.4432 72.9348 66.2542 67.6368 63.2526 63.8859C62.4444 63.3476 62.0912 63.2597 61.153 63.1649C60.9256 63.1392 60.6983 63.1135 60.4641 63.087C59.7695 63.0448 59.7695 63.0448 59.0534 63.6237Z" fill="#8B8B8B"/>
<path d="M72.1758 61.2539C78.0653 61.2539 83.9548 61.2539 90.0228 61.2539C90.0228 64.8017 90.0228 68.3494 90.0228 72.0047C89.6763 72.0047 89.3299 72.0047 88.9729 72.0047C88.9124 71.6724 88.8518 71.3402 88.7894 70.9978C88.1328 67.0966 88.1328 67.0966 85.8399 64.0072C83.9818 63.0979 82.472 63.3516 80.3119 63.3516C80.2253 67.9378 80.1387 72.5239 80.0494 77.249C81.9368 77.0514 81.9368 77.0514 83.1989 75.9379C84.1045 74.0877 84.3719 71.9081 84.7736 69.907C85.0335 69.907 85.2933 69.907 85.561 69.907C85.561 75.618 85.561 81.3291 85.561 87.2131C85.3012 87.2131 85.0414 87.2131 84.7736 87.2131C84.71 86.9157 84.6464 86.6182 84.5809 86.3118C84.0055 83.3311 84.0055 83.3311 82.674 80.6578C81.842 80.1776 81.0155 79.8711 80.0494 79.8711C80.0736 81.8408 80.1018 83.8104 80.1327 85.7799C80.1428 86.4504 80.152 87.1209 80.1602 87.7913C80.1721 88.7534 80.1873 89.7153 80.2032 90.6772C80.2063 90.9785 80.2093 91.2798 80.2124 91.5902C80.2176 91.8684 80.2228 92.1466 80.2282 92.4332C80.2317 92.679 80.2352 92.9247 80.2388 93.1778C80.2569 93.821 80.2569 93.821 80.8368 94.2929C82.8323 94.5358 84.7146 94.4974 86.3484 93.2441C88.6052 91.324 89.5164 88.0625 90.5477 85.3776C90.8075 85.3776 91.0673 85.3776 91.335 85.3776C91.335 89.0653 90.743 92.7315 90.2852 96.3907C84.3091 96.3907 78.333 96.3907 72.1758 96.3907C72.1758 95.958 72.1758 95.5253 72.1758 95.0796C72.5493 94.9254 72.5493 94.9254 72.9303 94.7682C73.7731 94.3719 73.7731 94.3719 74.095 93.6866C74.5048 92.0862 74.5769 90.57 74.576 88.9284C74.5769 88.6835 74.5778 88.4385 74.5787 88.1862C74.5812 87.3791 74.5817 86.5719 74.582 85.7648C74.5828 85.2018 74.5837 84.6389 74.5846 84.0759C74.5862 82.8966 74.5867 81.7174 74.5865 80.5382C74.5865 79.0299 74.5901 77.5217 74.5946 76.0134C74.5975 74.8508 74.598 73.6883 74.5979 72.5257C74.5982 71.9698 74.5994 71.4138 74.6014 70.8579C74.604 70.0792 74.6032 69.3005 74.6016 68.5218C74.6038 68.18 74.6038 68.18 74.6061 67.8314C74.5978 66.2116 74.4649 64.6764 73.6521 63.2369C73.166 62.77 72.8371 62.6561 72.1758 62.565C72.1758 62.1323 72.1758 61.6997 72.1758 61.2539Z" fill="#8B8B8B"/>
<path d="M274.531 61.2539C280.334 61.2539 286.137 61.2539 292.116 61.2539C292.116 64.8017 292.116 68.3494 292.116 72.0047C291.856 72.0047 291.596 72.0047 291.328 72.0047C291.287 71.7133 291.245 71.422 291.202 71.1218C290.808 68.5416 290.29 66.4402 288.769 64.2694C287.345 63.3204 285.629 63.2903 283.965 63.3588C283.455 63.3516 283.455 63.3516 282.667 63.0894C282.581 67.8486 282.494 72.6078 282.405 77.5112C284.629 76.9775 284.629 76.9775 285.403 76.0506C285.93 74.9063 286.18 73.7961 286.407 72.5619C286.453 72.3314 286.498 72.1009 286.545 71.8634C286.655 71.2992 286.762 70.7346 286.867 70.1692C287.386 70.0394 287.386 70.0394 287.916 69.907C287.916 75.618 287.916 81.3291 287.916 87.2131C287.57 87.2131 287.224 87.2131 286.867 87.2131C286.822 86.9377 286.777 86.6622 286.731 86.3784C286.275 83.3845 286.275 83.3845 285.029 80.6578C284.167 80.0836 283.4 79.8716 282.405 79.6089C282.422 81.6159 282.446 83.6228 282.474 85.6297C282.483 86.3129 282.49 86.9961 282.496 87.6793C282.505 88.6596 282.518 89.6397 282.533 90.6199C282.535 90.9269 282.536 91.2339 282.538 91.5502C282.546 91.9754 282.546 91.9754 282.554 92.4092C282.557 92.6595 282.56 92.9099 282.563 93.1679C282.615 93.4652 282.615 93.4652 282.667 93.7685C283.902 94.591 285.159 94.436 286.604 94.2929C288.073 93.9084 289.031 93.0838 289.882 91.849C291.032 89.8116 291.932 87.6046 292.641 85.3776C293.074 85.3776 293.507 85.3776 293.953 85.3776C293.677 88.0046 293.37 90.626 293.018 93.2441C292.985 93.4961 292.951 93.7481 292.917 94.0078C292.869 94.3599 292.869 94.3599 292.82 94.719C292.792 94.9279 292.764 95.1368 292.734 95.352C292.641 95.8662 292.641 95.8662 292.378 96.3907C286.489 96.3907 280.599 96.3907 274.531 96.3907C274.531 95.958 274.531 95.5253 274.531 95.0796C274.775 94.993 275.018 94.9065 275.269 94.8174C276.35 94.1399 276.597 93.3858 276.893 92.1952C276.997 91.2973 277.001 90.4102 276.995 89.5069C276.997 89.2462 276.998 88.9854 276.999 88.7167C277.003 87.86 277.001 87.0035 276.998 86.1469C276.998 85.5487 276.999 84.9506 277 84.3525C277.001 83.1012 277 81.85 276.996 80.5987C276.992 78.9969 276.994 77.3952 276.999 75.7934C277.002 74.5591 277.001 73.3249 276.999 72.0905C276.998 71.5 276.999 70.9094 277.001 70.3189C277.003 69.493 277 68.6673 276.995 67.8415C276.997 67.5988 276.998 67.3562 277 67.1062C276.984 65.4485 276.808 64.0532 275.581 62.8272C275.038 62.6587 275.038 62.6587 274.531 62.565C274.531 62.1323 274.531 61.6997 274.531 61.2539Z" fill="#8B8B8B"/>
<path d="M245.266 62.5197C245.959 62.9061 245.959 62.9061 246.972 62.8311C247.145 62.2254 247.319 61.6197 247.497 60.9956C248.147 60.8658 248.147 60.8658 248.809 60.7334C248.809 64.8868 248.809 69.0403 248.809 73.3197C248.376 73.2331 247.943 73.1466 247.497 73.0574C247.424 72.7722 247.35 72.4869 247.275 72.193C246.61 69.7178 245.814 67.5882 244.348 65.4532C244.237 65.2896 244.126 65.126 244.012 64.9575C243.204 63.8806 242.158 63.1133 240.936 62.5689C239.955 62.436 239.342 62.4879 238.41 62.7983C235.317 65.5632 235.167 71.3212 234.936 75.1829C234.299 85.361 234.299 85.361 237.936 94.4863C238.835 95.2888 239.461 95.4452 240.656 95.4123C241.492 95.3097 242.077 95.0224 242.773 94.559C243.426 93.625 243.378 92.6381 243.377 91.5405C243.378 91.3497 243.379 91.1589 243.38 90.9623C243.382 90.5588 243.382 90.1552 243.381 89.7517C243.38 89.141 243.386 88.5308 243.393 87.9202C243.402 85.9117 243.394 84.0826 242.51 82.235C241.716 81.7943 241.716 81.7943 240.936 81.7105C240.936 81.2779 240.936 80.8452 240.936 80.3995C244.4 80.3995 247.865 80.3995 251.434 80.3995C251.434 80.8321 251.434 81.2648 251.434 81.7105C250.973 81.8727 250.511 82.0349 250.05 82.1971C249.379 82.6414 249.305 83.0354 249.072 83.8082C249 84.6228 249.005 85.4339 249.009 86.2511C249.005 86.732 249.001 87.2129 248.997 87.6938C248.992 88.4488 248.99 89.2037 248.992 89.9587C248.992 90.6896 248.985 91.4201 248.977 92.151C248.979 92.3766 248.982 92.6022 248.985 92.8347C248.959 94.4013 248.959 94.4013 248.192 95.2108C245.478 96.762 241.808 98.0509 238.672 97.2723C235.37 96.2048 233.184 94.0273 231.586 91.0191C228.277 84.2742 228.42 75.7791 230.734 68.7483C231.967 65.5562 234.04 62.5622 237.245 61.1267C240.274 60.087 242.537 61.1078 245.266 62.5197Z" fill="#8B8B8B"/>
<path d="M180.507 61.7565C181.372 62.0495 182.023 62.098 182.929 62.0433C183.102 61.6107 183.275 61.178 183.454 60.7323C183.8 60.7323 184.146 60.7323 184.503 60.7323C184.503 64.5396 184.503 68.347 184.503 72.2697C184.157 72.2697 183.811 72.2697 183.454 72.2697C183.38 71.9875 183.307 71.7052 183.231 71.4144C182.094 67.0502 182.094 67.0502 179.418 63.5347C178.254 62.9932 177.365 62.8082 176.105 63.0922C174.862 63.902 174.495 64.9575 174.138 66.3402C173.743 68.3714 173.967 69.961 175.055 71.7453C176.073 73.1706 177.221 73.9276 178.729 74.7935C182.31 76.8844 184.778 79.3374 186.012 83.4036C186.808 86.7951 186.54 90.5469 184.848 93.6238C183.562 95.5827 181.709 96.7615 179.442 97.3307C177.383 97.6688 175.679 97.0926 173.747 96.4529C172.785 96.1394 171.861 95.982 170.856 95.869C170.769 96.3882 170.683 96.9074 170.593 97.4423C170.247 97.4423 169.9 97.4423 169.543 97.4423C169.543 93.2023 169.543 88.9623 169.543 84.5938C169.89 84.5938 170.236 84.5938 170.593 84.5938C170.626 84.7469 170.659 84.8999 170.693 85.0577C171.769 90.5781 171.769 90.5781 175.235 94.8038C176.461 95.1963 177.486 95.1178 178.729 94.8202C180.13 94.09 180.577 92.8342 181.092 91.4114C181.534 89.8997 181.599 88.3816 180.944 86.9373C179.768 84.8925 177.867 83.5723 175.974 82.2339C172.729 79.9399 170.378 77.5934 169.429 73.5972C168.884 69.9175 169.106 65.9152 171.381 62.83C174.048 59.9883 177.109 60.3516 180.507 61.7565Z" fill="#8B8B8B"/>
<path d="M28.082 61.2539C31.4598 61.2539 34.8376 61.2539 38.3178 61.2539C38.3178 61.6866 38.3178 62.1192 38.3178 62.565C38.1175 62.6299 37.9172 62.6948 37.7109 62.7616C36.9255 63.1266 36.6527 63.4003 36.2182 64.1383C35.8976 65.2069 35.915 66.2595 35.9134 67.3661C35.9121 67.5855 35.9108 67.8048 35.9095 68.0307C35.9056 68.7565 35.9038 69.4823 35.9024 70.2081C35.9009 70.7152 35.8994 71.2222 35.8979 71.7293C35.8951 72.7939 35.8936 73.8586 35.8926 74.9232C35.8912 76.2786 35.8849 77.6338 35.8774 78.9891C35.8725 80.0379 35.8712 81.0867 35.8708 82.1355C35.87 82.6345 35.8679 83.1335 35.8644 83.6325C35.7059 89.0111 35.7059 89.0111 37.7929 93.7685C38.8964 94.4091 39.9889 94.6727 41.254 94.4568C42.4726 94.0566 43.1764 93.2736 43.8294 92.1952C44.1674 91.4234 44.4158 90.6528 44.6167 89.8353C44.6621 89.6547 44.7075 89.4742 44.7542 89.2882C44.9226 88.2585 44.9201 87.2516 44.9215 86.2099C44.9228 85.9795 44.9241 85.7491 44.9254 85.5117C44.9292 84.7518 44.931 83.9918 44.9325 83.2318C44.934 82.7024 44.9355 82.1731 44.937 81.6438C44.9398 80.5348 44.9413 79.4259 44.9422 78.317C44.9437 76.8971 44.95 75.4773 44.9574 74.0574C44.9623 72.9644 44.9637 71.8714 44.9641 70.7784C44.9649 70.2549 44.967 69.7315 44.9705 69.208C44.9749 68.4756 44.9744 67.7433 44.9727 67.0109C44.9752 66.7955 44.9776 66.5801 44.9801 66.3582C44.9708 65.0803 44.8106 64.1917 44.0918 63.0894C43.4207 62.7156 43.4207 62.7156 42.7795 62.565C42.7795 62.1323 42.7795 61.6997 42.7795 61.2539C44.9448 61.2539 47.1101 61.2539 49.3409 61.2539C49.2543 61.6866 49.1677 62.1192 49.0785 62.565C48.7699 62.6623 48.7699 62.6623 48.4551 62.7616C47.7447 63.0135 47.7447 63.0135 47.5302 63.5567C47.0577 64.9883 46.8657 66.2499 46.8778 67.7531C46.8764 67.9701 46.875 68.187 46.8736 68.4106C46.871 68.8775 46.8702 69.3445 46.871 69.8115C46.8722 70.554 46.8685 71.2964 46.8636 72.0389C46.854 73.6172 46.8503 75.1954 46.8476 76.7737C46.8444 78.6001 46.8387 80.4263 46.8266 82.2527C46.8231 82.978 46.8241 83.7032 46.8254 84.4285C46.8133 88.3902 46.5734 92.5313 43.7309 95.5876C42.0126 97.15 40.0618 97.4839 37.7929 97.4395C35.8176 97.1209 34.1692 96.0716 32.8872 94.5541C31.0852 92.0318 30.4067 89.2946 30.4027 86.2382C30.4014 86.0107 30.4001 85.7833 30.3987 85.549C30.3959 85.0564 30.3936 84.5638 30.3918 84.0712C30.3887 83.2907 30.3836 82.5103 30.3779 81.7299C30.3618 79.5113 30.3475 77.2927 30.3388 75.0741C30.3333 73.7158 30.324 72.3576 30.3123 70.9993C30.3086 70.4827 30.3063 69.966 30.3055 69.4494C30.3042 68.7258 30.2981 68.0024 30.291 67.2788C30.2922 66.9608 30.2922 66.9608 30.2934 66.6364C30.2734 65.2696 30.0501 64.298 29.3943 63.0894C28.7267 62.6949 28.7267 62.6949 28.082 62.565C28.082 62.1323 28.082 61.6997 28.082 61.2539Z" fill="#8B8B8B"/>
<path d="M251.172 61.2539C254.55 61.2539 257.927 61.2539 261.408 61.2539C261.408 61.6866 261.408 62.1192 261.408 62.565C261.207 62.6299 261.007 62.6948 260.801 62.7616C260.015 63.1266 259.743 63.4003 259.308 64.1383C258.989 65.2025 259.007 66.2484 259.007 67.3504C259.007 67.568 259.006 67.7856 259.005 68.0098C259.002 68.7296 259.002 69.4494 259.001 70.1692C259.001 70.6716 259 71.1741 258.999 71.6765C258.997 72.731 258.997 73.7855 258.997 74.84C258.997 76.1842 258.993 77.5283 258.989 78.8725C258.986 79.9114 258.985 80.9503 258.986 81.9891C258.985 82.4842 258.984 82.9793 258.982 83.4743C258.806 88.9113 258.806 88.9113 260.883 93.7685C261.963 94.4835 263.072 94.6662 264.344 94.4568C265.562 94.0591 266.252 93.2596 266.919 92.1952C267.873 90.2637 268.008 88.3052 268.007 86.1843C268.008 85.9543 268.009 85.7243 268.01 85.4873C268.012 84.73 268.013 83.9727 268.013 83.2154C268.014 82.6871 268.015 82.1587 268.016 81.6304C268.017 80.5241 268.018 79.4179 268.018 78.3116C268.018 76.8962 268.021 75.4808 268.026 74.0654C268.029 72.9746 268.029 71.8838 268.029 70.793C268.029 70.2713 268.031 69.7495 268.033 69.2277C268.035 68.4973 268.034 67.7669 268.033 67.0365C268.034 66.8225 268.036 66.6084 268.037 66.3879C268.03 65.1033 267.854 64.0465 267.444 62.8272C266.924 62.7407 266.405 62.6541 265.869 62.565C265.869 62.1323 265.869 61.6997 265.869 61.2539C268.035 61.2539 270.2 61.2539 272.431 61.2539C272.344 61.6866 272.258 62.1192 272.168 62.565C271.86 62.6623 271.86 62.6623 271.545 62.7616C270.835 63.0135 270.835 63.0135 270.62 63.5561C270.145 64.9939 269.957 66.2591 269.972 67.7689C269.971 67.9875 269.97 68.2062 269.969 68.4315C269.967 68.9023 269.967 69.3732 269.969 69.844C269.971 70.5933 269.969 71.3424 269.965 72.0917C269.954 74.2207 269.954 76.3497 269.954 78.4787C269.954 79.7855 269.949 81.0922 269.941 82.399C269.939 83.1298 269.942 83.8605 269.945 84.5913C269.937 88.3535 269.722 92.5002 266.94 95.3305C265.097 97.0301 263.38 97.4586 260.883 97.4395C258.908 97.1251 257.257 96.0695 255.977 94.5541C254.167 92.0201 253.496 89.2701 253.493 86.2099C253.491 85.9795 253.49 85.7491 253.489 85.5117C253.486 85.0127 253.483 84.5137 253.482 84.0146C253.479 83.2243 253.473 82.4341 253.468 81.6438C253.452 79.3972 253.437 77.1507 253.429 74.9041C253.423 73.5288 253.414 72.1536 253.402 70.7784C253.398 70.2549 253.396 69.7315 253.395 69.208C253.394 68.4756 253.388 67.7433 253.381 67.0109C253.382 66.7955 253.382 66.5801 253.383 66.3582C253.365 65.0831 253.2 64.1896 252.484 63.0894C251.813 62.7156 251.813 62.7156 251.172 62.565C251.172 62.1323 251.172 61.6997 251.172 61.2539Z" fill="#8B8B8B"/>
<path d="M294.215 61.2539C300.364 61.2539 306.514 61.2539 312.849 61.2539C312.849 64.7151 312.849 68.1764 312.849 71.7425C312.589 71.7425 312.33 71.7425 312.062 71.7425C312.004 71.4352 311.947 71.128 311.888 70.8114C311.165 66.7116 311.165 66.7116 308.65 63.5811C307.864 63.3521 307.095 63.2171 306.288 63.0894C306.304 66.921 306.324 70.7526 306.35 74.5842C306.361 76.3634 306.372 78.1426 306.379 79.9218C306.385 81.639 306.396 83.3561 306.409 85.0733C306.414 85.7282 306.417 86.3832 306.418 87.0382C306.421 87.956 306.428 88.8736 306.437 89.7913C306.436 90.0618 306.436 90.3322 306.436 90.6109C306.455 92.12 306.586 93.2316 307.338 94.5551C308.005 94.9497 308.005 94.9497 308.65 95.0796C308.65 95.5122 308.65 95.9449 308.65 96.3907C305.272 96.3907 301.894 96.3907 298.414 96.3907C298.414 95.958 298.414 95.5253 298.414 95.0796C298.658 94.9985 298.901 94.9173 299.152 94.8338C300.324 94.0765 300.48 93.2596 300.776 91.933C300.882 90.9596 300.891 89.9959 300.89 89.0173C300.892 88.7357 300.895 88.454 300.898 88.1638C300.906 87.2402 300.908 86.3166 300.911 85.393C300.915 84.7497 300.92 84.1064 300.925 83.4631C300.937 81.7754 300.945 80.0878 300.952 78.4002C300.96 76.6758 300.972 74.9515 300.984 73.2272C301.006 69.8479 301.024 66.4687 301.039 63.0894C300.66 63.1677 300.281 63.2475 299.903 63.3281C299.692 63.3724 299.481 63.4167 299.264 63.4623C298.151 63.7495 297.614 64.2526 297.022 65.225C295.97 67.2992 295.616 69.4685 295.265 71.7425C294.918 71.7425 294.572 71.7425 294.215 71.7425C294.215 68.2813 294.215 64.82 294.215 61.2539Z" fill="#8B8B8B"/>
<path d="M134.379 61.2539C134.725 61.2539 135.072 61.2539 135.429 61.2539C136.396 64.6446 137.278 68.0531 138.127 71.4751C138.349 72.366 138.571 73.2567 138.793 74.1474C139.263 76.0333 139.733 77.9194 140.202 79.8056C140.749 82.0044 141.297 84.2031 141.845 86.4015C142.063 87.2773 142.281 88.1532 142.499 89.0291C142.632 89.5651 142.766 90.1011 142.9 90.637C142.959 90.879 143.019 91.1209 143.081 91.3701C143.373 92.5377 143.687 93.6814 144.09 94.8174C144.523 94.9039 144.956 94.9904 145.402 95.0796C145.402 95.5122 145.402 95.9449 145.402 96.3907C142.111 96.3907 138.82 96.3907 135.429 96.3907C135.429 95.958 135.429 95.5253 135.429 95.0796C135.651 94.999 135.651 94.999 135.879 94.9167C136.071 94.8461 136.264 94.7754 136.462 94.7026C136.654 94.6327 136.846 94.5627 137.043 94.4906C137.524 94.3313 137.524 94.3313 137.791 94.0307C138.049 92.1678 137.606 90.4448 137.114 88.6645C136.873 87.7844 136.741 87.0867 136.741 86.1643C134.402 86.1643 132.064 86.1643 129.655 86.1643C129.568 87.0296 129.481 87.8949 129.392 88.7864C129.254 89.3705 129.254 89.3705 129.113 89.9664C128.819 91.2311 128.677 92.4765 128.867 93.7685C129.369 94.5028 129.673 94.736 130.508 95.014C130.659 95.0357 130.811 95.0573 130.967 95.0796C130.967 95.5122 130.967 95.9449 130.967 96.3907C128.888 96.3907 126.81 96.3907 124.668 96.3907C124.668 95.958 124.668 95.5253 124.668 95.0796C124.833 95.0587 124.998 95.0378 125.168 95.0162C125.755 94.8743 125.755 94.8743 125.957 94.3551C126.009 94.1499 126.061 93.9448 126.115 93.7334C126.177 93.4946 126.24 93.2558 126.305 93.0097C126.371 92.7409 126.437 92.4722 126.505 92.1952C126.618 91.7639 126.618 91.7639 126.733 91.3238C126.996 90.3171 127.251 89.3087 127.505 88.2999C127.601 87.9194 127.697 87.5389 127.794 87.1585C127.998 86.3531 128.201 85.5477 128.404 84.7422C128.721 83.4864 129.039 82.2308 129.357 80.9752C129.409 80.7667 129.462 80.5582 129.517 80.3433C129.623 79.9223 129.73 79.5013 129.836 79.0803C129.996 78.4496 130.156 77.8189 130.315 77.1882C131.238 73.5415 132.167 69.8965 133.099 66.2524C133.166 65.9904 133.233 65.7284 133.302 65.4584C133.661 64.0568 134.02 62.6553 134.379 61.2539ZM133.067 72.2669C132.367 74.7591 131.752 77.2685 131.164 79.7892C131.093 80.0898 131.022 80.3904 130.949 80.7002C130.883 80.9846 130.817 81.2691 130.75 81.5622C130.69 81.8173 130.631 82.0724 130.57 82.3352C130.41 83.0738 130.41 83.0738 130.442 84.0666C132.347 84.0666 134.253 84.0666 136.216 84.0666C135.263 80.1727 134.311 76.2788 133.329 72.2669C133.242 72.2669 133.156 72.2669 133.067 72.2669Z" fill="#8B8B8B"/>
<path d="M217.312 61.2539C220.95 61.2539 224.588 61.2539 228.336 61.2539C228.336 61.6866 228.336 62.1192 228.336 62.565C228.092 62.6245 227.848 62.684 227.597 62.7453C226.562 63.1712 226.414 63.3805 225.974 64.4005C225.859 65.3165 225.866 66.2258 225.872 67.148C225.87 67.5627 225.87 67.5627 225.867 67.9857C225.864 68.899 225.866 69.8121 225.869 70.7254C225.868 71.3605 225.868 71.9957 225.867 72.6309C225.866 73.962 225.867 75.2931 225.871 76.6242C225.875 78.3298 225.873 80.0353 225.868 81.7409C225.865 83.0526 225.866 84.3643 225.868 85.6759C225.869 86.3048 225.868 86.9336 225.866 87.5624C225.864 88.4418 225.867 89.321 225.872 90.2004C225.87 90.4599 225.868 90.7195 225.867 90.9869C225.879 92.3615 225.951 93.3852 226.761 94.5551C227.565 94.9327 227.565 94.9327 228.336 95.0796C228.336 95.5122 228.336 95.9449 228.336 96.3907C224.785 96.3907 221.234 96.3907 217.575 96.3907C217.488 95.958 217.402 95.5253 217.312 95.0796C217.643 95.0471 217.973 95.0147 218.313 94.9812C218.903 94.8594 218.903 94.8594 219.412 94.5551C220.27 92.9348 220.314 91.0582 220.301 89.2657C220.303 89.0134 220.304 88.761 220.306 88.501C220.309 87.6753 220.307 86.8497 220.304 86.024C220.305 85.4455 220.305 84.867 220.306 84.2885C220.308 83.0796 220.306 81.8707 220.302 80.6618C220.298 79.1165 220.3 77.5714 220.305 76.0261C220.308 74.8327 220.307 73.6393 220.305 72.4459C220.304 71.8763 220.305 71.3067 220.307 70.737C220.309 69.9396 220.306 69.1423 220.301 68.3449C220.303 68.1123 220.305 67.8797 220.306 67.6401C220.291 66.1145 220.068 64.7431 219.412 63.3516C218.91 62.868 218.91 62.868 218.313 62.6797C218.125 62.6036 217.938 62.5276 217.744 62.4492C217.602 62.4009 217.459 62.3526 217.312 62.3028C217.312 61.9566 217.312 61.6105 217.312 61.2539Z" fill="#8B8B8B"/>
<path d="M34.5932 112.06C35.1674 112.388 35.1674 112.388 35.4298 112.65C35.4669 113.35 35.441 114.046 35.4298 114.748C35.5442 114.584 35.6585 114.419 35.7764 114.25C37.0462 112.509 37.0462 112.509 38.1036 111.929C38.8417 111.864 38.8417 111.864 39.4651 112.077C40.139 112.983 39.9841 113.914 39.8916 115.01C39.7241 115.863 39.4887 116.686 39.2354 117.518C39.1728 117.732 39.1103 117.946 39.0458 118.167C38.8931 118.689 38.7366 119.21 38.5793 119.73C38.7796 119.557 38.9799 119.384 39.1862 119.206C39.8916 118.681 39.8916 118.681 40.6789 118.681C40.1603 119.853 39.403 120.626 38.3168 121.303C37.617 121.288 37.2427 121.279 36.7421 120.779C36.7559 119.105 37.1431 117.541 37.6084 115.944C37.8366 115.109 37.9588 114.297 38.0544 113.437C35.9117 115.397 34.7919 118.256 34.1175 121.041C33.5113 121.041 32.905 121.041 32.2804 121.041C32.3889 119.699 32.5333 118.391 32.8217 117.075C33.0682 115.922 33.1113 114.876 33.0677 113.699C31.0437 115.768 30.2531 118.328 29.3933 121.041C28.7871 121.041 28.1808 121.041 27.5562 121.041C27.9322 118.667 28.3856 116.315 28.8684 113.961C28.7115 114.042 28.5545 114.123 28.3927 114.207C27.8186 114.486 27.8186 114.486 27.0312 114.748C27.4501 113.66 28.2066 112.821 29.1309 112.126C29.8691 112.011 29.8691 112.011 30.4432 112.126C30.9804 112.662 30.8895 113.779 30.9681 114.486C31.1521 114.199 31.3362 113.912 31.5258 113.617C32.3243 112.508 33.1553 111.677 34.5932 112.06ZM34.9049 115.272C35.1674 115.797 35.1674 115.797 35.1674 115.797L34.9049 115.272Z" fill="#8B8B8B"/>
<path d="M288.65 109.571C289.258 110.057 289.648 110.389 290.012 111.079C290.163 112.442 289.981 113.341 289.225 114.488C288.519 114.979 288.519 114.979 287.912 115.274C288.085 115.393 288.259 115.512 288.437 115.635C289.132 116.545 289.112 117.176 289.063 118.297C288.865 119.573 288.264 120.255 287.256 121.01C285.797 121.479 284.1 121.671 282.644 121.087C282.055 120.707 281.666 120.361 281.351 119.732C281.138 118.018 281.394 116.934 282.401 115.537C282.991 115.028 282.991 115.028 283.45 114.75C283.323 114.646 283.196 114.543 283.065 114.436C282.416 113.672 282.523 112.948 282.555 111.981C282.663 111.341 282.663 111.341 283.204 110.571C284.91 109.375 286.648 108.682 288.65 109.571ZM285.37 110.686C284.512 111.612 284.54 112.188 284.5 113.439C284.587 113.698 284.674 113.958 284.763 114.225C286.028 114.526 286.028 114.526 287.223 114.16C287.864 113.471 287.911 112.925 287.978 111.997C287.988 111.107 287.988 111.107 287.584 110.571C286.753 110.067 286.176 110.236 285.37 110.686ZM283.713 116.585C283.468 117.32 283.408 117.806 283.401 118.568C283.398 118.774 283.394 118.98 283.39 119.192C283.4 119.791 283.4 119.791 283.975 120.256C285.084 120.403 285.632 120.371 286.584 119.765C287.247 118.76 287.272 118.105 287.274 116.927C287.173 116.285 287.173 116.285 286.632 115.857C285.35 115.119 284.592 115.487 283.713 116.585Z" fill="#8B8B8B"/>
<path d="M223.615 107.672C223.435 110.175 222.921 112.593 222.417 115.047C222.33 115.477 222.242 115.907 222.155 116.337C221.943 117.382 221.729 118.427 221.515 119.472C221.721 119.342 221.926 119.212 222.138 119.078C222.827 118.685 222.827 118.685 223.352 118.685C222.832 119.863 222.061 120.604 220.99 121.307C220.219 121.405 220.219 121.405 219.678 121.307C219.505 120.788 219.331 120.269 219.153 119.734C218.942 119.945 218.731 120.156 218.513 120.373C217.578 121.307 217.578 121.307 216.709 121.405C215.741 121.307 215.741 121.307 215.101 120.766C214.476 119.592 214.53 118.758 214.874 117.484C215.565 115.406 216.502 113.382 218.365 112.13C219.4 111.696 219.553 111.922 220.728 112.392C220.901 111.267 221.074 110.142 221.252 108.983C220.906 108.983 220.56 108.983 220.203 108.983C220.289 108.637 220.376 108.291 220.465 107.934C220.941 107.89 221.416 107.847 221.892 107.803C222.29 107.766 222.29 107.766 222.695 107.729C223.352 107.672 223.352 107.672 223.615 107.672ZM218.185 113.932C217.052 115.739 216.674 117.629 216.791 119.734C217.224 119.82 217.657 119.907 218.103 119.996C219.469 118.449 220.333 116.79 220.728 114.752C220.641 113.896 220.641 113.896 220.465 113.178C219.302 112.989 219.008 113.053 218.185 113.932ZM219.415 118.947C219.678 119.472 219.678 119.472 219.678 119.472L219.415 118.947Z" fill="#8B8B8B"/>
<path d="M129.391 107.672C129.769 108.429 129.556 108.914 129.392 109.739C129.332 110.045 129.272 110.351 129.21 110.666C129.145 110.987 129.08 111.307 129.013 111.638C128.918 112.122 128.918 112.122 128.82 112.616C128.662 113.416 128.502 114.215 128.341 115.014C128.501 114.77 128.66 114.525 128.825 114.273C129.491 113.294 130.143 112.384 131.244 111.884C131.931 111.862 132.254 111.976 132.803 112.392C133.106 113.398 133.036 114.135 132.804 115.15C132.714 115.552 132.714 115.552 132.622 115.962C132.557 116.239 132.492 116.515 132.425 116.8C132.362 117.082 132.298 117.364 132.232 117.654C132.075 118.348 131.915 119.041 131.753 119.734C131.958 119.561 132.164 119.388 132.376 119.209C133.065 118.685 133.065 118.685 133.59 118.685C133.447 119.652 133.119 120.009 132.343 120.586C132.077 120.791 132.077 120.791 131.806 121C131.126 121.361 130.675 121.365 129.916 121.307C129.473 119.737 129.902 118.442 130.309 116.915C130.439 116.42 130.568 115.924 130.695 115.428C130.753 115.21 130.811 114.992 130.871 114.767C131.023 114.213 131.023 114.213 130.703 113.703C129.773 114.53 129.278 115.375 128.735 116.489C128.656 116.65 128.577 116.811 128.496 116.977C127.852 118.306 127.28 119.66 126.766 121.045C126.246 121.045 125.727 121.045 125.191 121.045C125.341 118.843 125.776 116.725 126.241 114.571C126.384 113.904 126.526 113.237 126.668 112.569C126.731 112.277 126.794 111.984 126.858 111.683C127.035 110.786 127.169 109.889 127.291 108.983C126.771 108.983 126.252 108.983 125.716 108.983C125.878 108.471 125.878 108.471 126.241 107.934C126.981 107.774 126.981 107.774 127.849 107.737C128.136 107.723 128.424 107.708 128.72 107.692C129.052 107.682 129.052 107.682 129.391 107.672ZM127.816 115.538C128.078 116.063 128.078 116.063 128.078 116.063L127.816 115.538Z" fill="#8B8B8B"/>
<path d="M93.4372 107.932C94.4766 107.932 95.5159 107.932 96.5867 107.932C96.4305 109.486 96.2118 111 95.8967 112.53C95.8563 112.73 95.8159 112.93 95.7743 113.137C95.6469 113.767 95.5181 114.398 95.3893 115.028C95.3018 115.459 95.2145 115.891 95.1273 116.322C94.915 117.371 94.7014 118.42 94.4871 119.469C94.6928 119.339 94.8985 119.209 95.1104 119.076C95.7993 118.682 95.7993 118.682 96.3243 118.682C95.804 119.86 95.0332 120.602 93.9622 121.305C93.1912 121.403 93.1912 121.403 92.6499 121.305C92.4767 120.785 92.3034 120.266 92.125 119.731C91.9139 119.942 91.7027 120.153 91.4852 120.37C90.5502 121.305 90.5502 121.305 89.6644 121.37C88.713 121.305 88.713 121.305 88.2753 120.973C87.6202 120.121 87.6127 119.205 87.6632 118.158C88.1923 115.858 89.3383 113.471 91.3376 112.127C92.0818 111.815 92.3297 111.845 93.1092 112.111C93.4015 112.249 93.4015 112.249 93.6997 112.389C93.7878 111.963 93.8751 111.537 93.9622 111.111C94.0109 110.874 94.0596 110.636 94.1098 110.392C94.2404 109.787 94.2404 109.787 94.2246 109.243C93.8782 109.156 93.5317 109.07 93.1748 108.98C93.2614 108.634 93.348 108.288 93.4372 107.932ZM91.1572 113.93C90.0245 115.737 89.6458 117.626 89.7629 119.731C90.1959 119.818 90.629 119.904 91.0751 119.994C92.4413 118.447 93.3053 116.787 93.6997 114.749C93.6129 113.894 93.6129 113.894 93.4372 113.176C92.2742 112.987 91.9797 113.051 91.1572 113.93ZM92.6499 118.42C92.9123 118.945 92.9123 118.945 92.9123 118.945L92.6499 118.42ZM92.3874 118.945C92.6499 119.469 92.6499 119.469 92.6499 119.469L92.3874 118.945Z" fill="#8B8B8B"/>
<path d="M173.745 112.392C173.832 112.306 173.918 112.219 174.007 112.13C174.62 112.119 175.232 112.119 175.845 112.13C175.644 113.239 175.441 114.348 175.238 115.457C175.182 115.766 175.126 116.075 175.068 116.394C173.785 123.375 173.785 123.375 172.039 124.684C170.699 125.114 169.367 125.134 167.971 124.979C167.711 124.806 167.451 124.632 167.184 124.454C167.27 124.022 167.357 123.589 167.446 123.143C168.096 123.013 168.096 123.013 168.758 122.881C168.861 123.054 168.964 123.227 169.07 123.405C169.505 123.989 169.505 123.989 170.202 124.061C170.875 123.986 170.875 123.986 171.301 123.52C171.924 122.364 172.17 121.305 172.17 119.997C172.008 120.164 171.845 120.332 171.678 120.505C170.943 121.217 170.732 121.298 169.693 121.373C168.758 121.308 168.758 121.308 168.266 121.029C167.628 119.93 167.625 119.097 167.873 117.881C168.547 115.46 169.521 113.564 171.645 112.13C172.596 111.813 172.864 111.988 173.745 112.392ZM171.155 114.285C170.029 116.055 169.768 117.682 169.808 119.734C170.241 119.821 170.674 119.907 171.12 119.997C172.874 118.098 173.771 116.058 173.745 113.441C173.472 113.12 173.472 113.12 172.892 113.064C171.998 113.206 171.689 113.575 171.155 114.285ZM172.433 119.21C172.695 119.734 172.695 119.734 172.695 119.734L172.433 119.21Z" fill="#8B8B8B"/>
<path d="M241.462 112.394C242.257 113.585 242.155 114.669 241.987 116.065C241.415 118.116 240.53 119.73 238.837 121.047C237.983 121.473 237.159 121.339 236.212 121.309C236.083 121.179 236.083 121.179 235.95 121.047C235.863 121.371 235.777 121.696 235.688 122.03C235.639 122.213 235.59 122.395 235.54 122.583C235.39 123.22 235.39 123.22 235.425 124.193C235.858 124.28 236.291 124.367 236.737 124.456C236.737 124.629 236.737 124.802 236.737 124.98C235.005 124.98 233.273 124.98 231.488 124.98C231.488 124.807 231.488 124.634 231.488 124.456C231.862 124.366 231.862 124.366 232.243 124.275C233.093 124.022 233.093 124.022 233.352 123.367C233.62 122.52 233.809 121.68 233.984 120.808C234.018 120.638 234.052 120.468 234.087 120.292C234.159 119.934 234.23 119.576 234.3 119.218C234.408 118.671 234.518 118.125 234.629 117.578C234.698 117.229 234.767 116.88 234.837 116.531C234.899 116.215 234.962 115.899 235.026 115.574C235.191 114.72 235.191 114.72 235.163 113.705C234.957 113.878 234.751 114.051 234.539 114.229C233.85 114.754 233.85 114.754 233.325 114.754C233.745 113.664 234.502 112.83 235.425 112.132C236.147 112 236.147 112 236.737 112.132C237.299 112.692 237.374 112.953 237.525 113.705C237.714 113.499 237.904 113.294 238.099 113.082C239.254 112.005 240.017 111.575 241.462 112.394ZM238.05 113.967C237.566 114.694 237.566 114.694 237.197 115.524C237.065 115.797 236.934 116.07 236.799 116.351C236.22 117.715 236.164 118.789 236.212 120.26C236.486 120.585 236.486 120.585 237.082 120.621C237.82 120.585 237.82 120.585 238.329 120.031C239.398 118.307 240.27 116.3 240.149 114.229C239.908 113.65 239.908 113.65 239.624 113.18C239.006 113.18 238.529 113.628 238.05 113.967Z" fill="#8B8B8B"/>
<path d="M246.711 111.869C246.971 111.956 247.231 112.042 247.499 112.131C247.955 113.731 247.509 115.121 247.121 116.687C247.058 116.955 246.994 117.223 246.928 117.5C246.771 118.158 246.611 118.816 246.449 119.473C247.28 119.311 247.28 119.311 247.909 118.761C249.264 116.668 250.108 114.56 250.648 112.131C251.254 112.131 251.861 112.131 252.485 112.131C252.272 113.202 252.059 114.273 251.846 115.343C251.785 115.647 251.725 115.951 251.663 116.264C251.575 116.703 251.575 116.703 251.486 117.15C251.405 117.554 251.405 117.554 251.323 117.966C251.199 118.56 251.064 119.148 250.911 119.736C251.16 119.563 251.409 119.389 251.665 119.211C252.485 118.687 252.485 118.687 253.01 118.687C252.489 119.866 251.718 120.603 250.648 121.309C249.894 121.424 249.894 121.424 249.336 121.309C249.073 121.047 249.073 121.047 249.057 120.113C249.062 119.815 249.068 119.518 249.073 119.211C248.927 119.411 248.781 119.611 248.63 119.818C247.795 120.788 247.163 121.237 245.891 121.44C245.136 121.309 245.136 121.309 244.676 120.764C244.239 119.74 244.407 119.172 244.661 118.097C244.7 117.924 244.739 117.751 244.78 117.573C244.894 117.069 245.015 116.567 245.136 116.065C245.241 115.589 245.345 115.114 245.448 114.639C245.519 114.331 245.589 114.022 245.661 113.705C245.456 113.878 245.25 114.051 245.038 114.229C244.349 114.753 244.349 114.753 243.824 114.753C244.183 113.927 244.574 113.44 245.268 112.869C245.427 112.735 245.587 112.602 245.752 112.464C246.186 112.131 246.186 112.131 246.711 111.869ZM249.336 118.162C249.598 118.687 249.598 118.687 249.598 118.687L249.336 118.162Z" fill="#8B8B8B"/>
<path d="M48.291 112.39C48.3776 112.304 48.4642 112.217 48.5535 112.128C49.0783 112.118 49.6034 112.117 50.1282 112.128C49.9755 113.897 49.6434 115.581 49.2414 117.311C49.0975 118.06 49.0456 118.712 49.0784 119.47C49.2408 119.34 49.4032 119.211 49.5705 119.077C50.1282 118.684 50.1282 118.684 50.6531 118.684C50.1352 119.854 49.3779 120.632 48.291 121.306C47.5201 121.273 47.5201 121.273 46.9787 121.043C46.8488 120.395 46.8488 120.395 46.7163 119.732C46.5052 119.943 46.2941 120.154 46.0765 120.372C45.1415 121.306 45.1415 121.306 44.2558 121.371C43.3044 121.306 43.3044 121.306 42.8123 120.945C42.1321 119.964 42.1208 119.056 42.2545 117.897C42.7678 115.904 43.6285 113.586 45.3333 112.314C46.45 111.75 47.1881 111.88 48.291 112.39ZM45.7813 113.8C44.417 115.633 43.9462 117.48 44.0917 119.732C44.6796 119.982 44.6796 119.982 45.404 119.995C46.9143 118.927 47.5151 117.216 47.8984 115.453C48.024 114.592 48.0439 114.01 47.7661 113.177C46.7843 113.009 46.525 113.111 45.7813 113.8Z" fill="#8B8B8B"/>
<path d="M3.14726 108.193C4.87946 108.193 6.61167 108.193 8.39637 108.193C8.39637 108.539 8.39637 108.886 8.39637 109.242C8.02559 109.301 8.02559 109.301 7.64732 109.361C6.81592 109.666 6.81592 109.666 6.59937 110.21C6.43461 110.823 6.31543 111.43 6.20855 112.055C6.16418 112.281 6.1198 112.507 6.07408 112.74C5.93386 113.463 5.80355 114.188 5.67339 114.913C5.58006 115.403 5.48609 115.893 5.39146 116.383C5.16086 117.585 4.93914 118.789 4.72199 119.993C5.31806 119.956 5.91404 119.918 6.50997 119.878C6.84186 119.857 7.17375 119.836 7.5157 119.814C8.39422 119.764 8.39422 119.764 9.18373 119.469C9.27034 119.036 9.35695 118.603 9.44619 118.158C9.70602 118.158 9.96585 118.158 10.2336 118.158C10.0603 119.109 9.88711 120.061 9.70864 121.042C6.76389 121.128 3.81914 121.215 0.785156 121.304C0.785156 121.044 0.785156 120.785 0.785156 120.517C1.43473 120.388 1.43473 120.388 2.09743 120.255C2.71956 117.831 3.30889 115.401 3.86901 112.962C3.92743 112.711 3.98586 112.459 4.04605 112.199C4.09995 111.963 4.15385 111.726 4.20938 111.482C4.25768 111.271 4.30597 111.061 4.35573 110.843C4.48375 110.256 4.48375 110.256 4.45953 109.504C3.80996 109.245 3.80996 109.245 3.14726 108.98C3.14726 108.72 3.14726 108.461 3.14726 108.193Z" fill="#8B8B8B"/>
<path d="M302.933 109.473C303.184 109.474 303.436 109.475 303.695 109.477C304.102 109.478 304.102 109.478 304.518 109.479C304.803 109.482 305.089 109.484 305.383 109.486C305.813 109.488 305.813 109.488 306.252 109.49C306.963 109.493 307.674 109.497 308.385 109.502C308.299 109.849 308.212 110.195 308.123 110.551C306.65 110.551 305.178 110.551 303.661 110.551C303.58 111.06 303.499 111.568 303.415 112.092C303.169 113.632 303.169 113.632 302.874 114.222C303.047 114.136 303.22 114.049 303.399 113.96C304.394 113.821 305.357 113.737 306.257 114.235C307.024 114.867 307.55 115.362 307.66 116.365C307.705 117.898 307.604 118.793 306.548 119.991C305.255 121.157 304.379 121.339 302.66 121.335C302.345 121.336 302.029 121.336 301.704 121.337C300.844 121.305 300.043 121.202 299.199 121.04C299.286 120.694 299.372 120.348 299.462 119.991C299.731 120 300 120.009 300.277 120.019C300.634 120.026 300.991 120.033 301.348 120.04C301.525 120.047 301.702 120.053 301.884 120.06C303.058 120.077 303.786 119.937 304.711 119.204C305.371 118.099 305.371 118.099 305.428 116.841C305.277 116.28 305.277 116.28 304.973 115.533C303.662 115.23 303.662 115.23 302.431 115.648C302.13 115.851 302.13 115.851 301.824 116.058C301.477 116.058 301.131 116.058 300.774 116.058C300.933 114.584 301.192 113.183 301.561 111.748C301.608 111.559 301.655 111.371 301.703 111.177C302.124 109.514 302.124 109.514 302.933 109.473Z" fill="#8B8B8B"/>
<path d="M142.611 112.904C143.535 114.075 143.413 115.432 143.3 116.853C142.96 118.574 141.959 119.88 140.676 121.049C139.607 121.405 138.643 121.484 137.526 121.311C136.588 120.808 136.031 120.238 135.689 119.213C135.374 116.889 135.961 115.115 137.264 113.182C138.796 111.602 140.903 111.511 142.611 112.904ZM138.977 113.613C137.978 115.181 137.752 116.334 137.756 118.197C137.755 118.522 137.755 118.847 137.754 119.182C137.732 119.976 137.732 119.976 138.051 120.524C138.663 120.634 138.663 120.634 139.363 120.524C140.681 119.324 141.148 117.683 141.258 115.952C141.265 115.111 141.266 114.283 141.201 113.444C140.912 113.108 140.912 113.108 140.216 113.035C139.365 113.091 139.365 113.091 138.977 113.613Z" fill="#8B8B8B"/>
<path d="M164.824 112.394C165.996 113.627 166.232 114.462 166.208 116.118C166.039 117.841 165.448 119.26 164.135 120.408C162.892 121.364 161.912 121.459 160.362 121.309C159.598 120.984 159.201 120.763 158.761 120.061C158.199 118.66 158.309 117.015 158.755 115.593C159.53 113.911 160.577 112.57 162.331 111.869C163.263 111.869 163.957 112.047 164.824 112.394ZM161.625 113.688C160.496 115.595 160.082 117.521 160.362 119.736C160.535 119.995 160.709 120.255 160.887 120.522C161.774 120.581 161.774 120.581 162.724 120.26C163.757 118.753 164.074 117.036 164.069 115.245C164.07 114.969 164.071 114.692 164.071 114.407C164.084 113.712 164.084 113.712 163.774 113.18C162.808 113.071 162.37 113.029 161.625 113.688Z" fill="#8B8B8B"/>
<path d="M292.636 109.504C295.062 109.504 297.487 109.504 299.985 109.504C299.985 110.978 299.985 110.978 299.407 111.858C299.281 112.053 299.155 112.248 299.025 112.449C298.887 112.656 298.749 112.863 298.607 113.077C298.32 113.519 298.032 113.961 297.745 114.404C297.596 114.632 297.447 114.86 297.293 115.094C296.542 116.249 295.813 117.417 295.081 118.583C294.818 119.002 294.554 119.421 294.29 119.839C294.18 120.014 294.069 120.19 293.955 120.371C293.686 120.779 293.686 120.779 293.424 121.041C292.727 121.161 292.027 121.226 291.324 121.304C291.773 119.971 292.536 118.855 293.293 117.682C293.576 117.239 293.859 116.795 294.142 116.352C294.284 116.129 294.427 115.907 294.574 115.677C295.225 114.656 295.867 113.629 296.508 112.601C296.621 112.421 296.733 112.24 296.85 112.054C297.108 111.641 297.365 111.228 297.623 110.815C297.022 110.808 296.42 110.803 295.819 110.799C295.316 110.794 295.316 110.794 294.804 110.789C293.979 110.754 293.979 110.754 293.424 111.077C293.234 111.508 293.058 111.945 292.899 112.388C292.639 112.388 292.379 112.388 292.112 112.388C292.285 111.436 292.458 110.485 292.636 109.504Z" fill="#8B8B8B"/>
<path d="M205.768 112.132C206.588 112.542 206.588 112.542 207.08 113.181C207.228 114.115 207.228 114.115 207.08 115.016C206.274 115.879 205.396 116.051 204.246 116.091C203.991 116.088 203.735 116.085 203.471 116.082C203.213 116.079 202.954 116.077 202.688 116.075C202.492 116.071 202.296 116.068 202.093 116.065C201.946 117.913 201.946 117.913 202.438 119.654C203.588 120.216 204.774 120.076 206.03 119.999C205.571 121.015 205.571 121.015 204.98 121.31C204.429 121.355 203.876 121.38 203.324 121.392C203.027 121.401 202.73 121.411 202.425 121.421C201.387 121.286 200.985 120.997 200.256 120.261C199.45 119.022 199.574 117.643 199.853 116.238C200.318 114.632 201.14 113.248 202.588 112.35C203.624 111.943 204.675 111.993 205.768 112.132ZM202.766 113.787C202.29 114.469 202.29 114.469 202.356 115.279C203.895 115.377 203.895 115.377 205.243 114.754C205.48 114.242 205.48 114.242 205.505 113.705C205.419 113.532 205.332 113.359 205.243 113.181C203.863 113.03 203.863 113.03 202.766 113.787Z" fill="#8B8B8B"/>
<path d="M78.7404 112.132C79.5606 112.542 79.5606 112.542 80.0527 113.181C80.2003 114.115 80.2003 114.115 80.0527 115.016C79.2466 115.879 78.3691 116.051 77.219 116.091C76.9632 116.088 76.7074 116.085 76.4439 116.082C76.1854 116.079 75.927 116.077 75.6607 116.075C75.4644 116.071 75.2682 116.068 75.066 116.065C74.9184 117.913 74.9184 117.913 75.4105 119.654C76.5606 120.216 77.7467 120.076 79.0029 119.999C78.5436 121.015 78.5436 121.015 77.953 121.31C77.402 121.355 76.8491 121.38 76.2963 121.392C75.9996 121.401 75.7029 121.411 75.3972 121.421C74.3601 121.286 73.9581 120.997 73.2288 120.261C72.4224 119.022 72.5466 117.643 72.8259 116.238C73.2903 114.632 74.1122 113.248 75.5602 112.35C76.5967 111.943 77.648 111.993 78.7404 112.132ZM75.7386 113.787C75.2625 114.469 75.2625 114.469 75.3285 115.279C76.8674 115.377 76.8674 115.377 78.2155 114.754C78.453 114.242 78.453 114.242 78.478 113.705C78.3913 113.532 78.3047 113.359 78.2155 113.181C76.8356 113.03 76.8356 113.03 75.7386 113.787Z" fill="#8B8B8B"/>
<path d="M183.459 112.133C184.148 112.542 184.148 112.542 184.508 113.182C184.64 114.116 184.64 114.116 184.508 115.017C183.751 115.799 182.992 116.055 181.905 116.092C181.481 116.087 181.481 116.087 181.047 116.082C180.619 116.079 180.619 116.079 180.183 116.075C179.965 116.072 179.747 116.069 179.522 116.066C179.545 116.574 179.573 117.082 179.604 117.59C179.627 118.014 179.627 118.014 179.65 118.447C179.732 119.199 179.732 119.199 180.096 119.704C180.769 120.122 181.279 120.076 182.064 120.048C182.456 120.038 182.456 120.038 182.855 120.027C183.054 120.018 183.253 120.009 183.459 119.999C183.377 120.507 183.377 120.507 183.196 121.048C181.825 121.505 180.044 121.69 178.712 121.045C178.029 120.491 177.701 120.048 177.422 119.212C177.223 117.097 177.546 115.281 178.685 113.477C180.083 112.12 181.572 111.849 183.459 112.133ZM180.49 113.64C180.059 114.214 179.884 114.578 179.784 115.279C181.323 115.378 181.323 115.378 182.671 114.755C182.909 114.243 182.909 114.243 182.934 113.706C182.847 113.533 182.76 113.36 182.671 113.182C181.727 113.096 181.26 113.058 180.49 113.64Z" fill="#8B8B8B"/>
<path d="M17.8449 112.125C18.665 112.534 18.665 112.534 19.1571 113.173C19.3048 114.108 19.3048 114.108 19.1571 115.009C18.4002 115.791 17.6409 116.047 16.5541 116.083C16.1294 116.079 16.1294 116.079 15.696 116.074C15.2682 116.071 15.2682 116.071 14.8318 116.067C14.6135 116.064 14.3953 116.061 14.1705 116.058C14.1934 116.566 14.2218 117.074 14.2525 117.582C14.2753 118.006 14.2753 118.006 14.2986 118.439C14.3804 119.191 14.3804 119.191 14.7446 119.696C15.4179 120.114 15.9281 120.068 16.713 120.04C17.1043 120.03 17.1043 120.03 17.5035 120.019C17.7027 120.01 17.902 120 18.1073 119.991C18.0253 120.499 18.0253 120.499 17.8449 121.04C16.4739 121.496 14.6927 121.682 13.3606 121.037C12.6776 120.483 12.3495 120.04 12.0708 119.204C11.8698 117.064 12.1424 115.047 13.4979 113.321C14.8053 112.015 16.05 111.896 17.8449 112.125ZM14.843 113.78C14.367 114.462 14.367 114.462 14.4329 115.271C15.9719 115.37 15.9719 115.37 17.32 114.747C17.5575 114.235 17.5575 114.235 17.5824 113.698C17.4958 113.525 17.4092 113.352 17.32 113.173C15.94 113.022 15.94 113.022 14.843 113.78Z" fill="#8B8B8B"/>
<path d="M230.964 112.122C231.8 112.663 231.8 112.663 232.276 113.433C232.342 114.384 232.342 114.384 232.014 115.269C230.541 116.261 229.016 116.14 227.289 116.055C227.194 117.957 227.194 117.957 227.814 119.726C228.508 120.073 229.042 120.014 229.816 120.005C230.079 120.003 230.342 120 230.613 119.998C230.917 119.993 230.917 119.993 231.226 119.989C231.144 120.497 231.144 120.497 230.964 121.037C229.602 121.491 228.183 121.463 226.765 121.3C225.962 120.865 225.597 120.277 225.19 119.464C224.956 117.171 225.151 115.341 226.502 113.433C227.893 112.108 229.077 111.865 230.964 112.122ZM227.995 113.777C227.522 114.468 227.522 114.468 227.289 115.269C228.741 115.384 228.741 115.384 230.045 114.875C230.175 114.746 230.305 114.616 230.439 114.482C230.352 114.049 230.266 113.617 230.176 113.171C229.131 113.052 228.759 113.014 227.995 113.777Z" fill="#8B8B8B"/>
<path d="M103.933 112.128C104.769 112.669 104.769 112.669 105.245 113.439C105.311 114.389 105.311 114.389 104.982 115.274C103.509 116.266 101.985 116.145 100.258 116.061C100.162 117.962 100.162 117.962 100.783 119.732C101.422 120.051 101.943 120.078 102.653 120.142C102.892 120.164 103.131 120.186 103.377 120.208C103.56 120.224 103.744 120.24 103.933 120.257C103.933 120.516 103.933 120.776 103.933 121.043C102.571 121.497 101.152 121.469 99.7333 121.305C98.9307 120.87 98.5655 120.283 98.1586 119.47C97.9758 117.383 97.995 115.475 99.2084 113.701C100.618 112.207 101.924 111.854 103.933 112.128ZM100.964 113.783C100.491 114.473 100.491 114.473 100.258 115.274C100.754 115.283 100.754 115.283 101.259 115.291C101.445 115.294 101.63 115.297 101.822 115.3C102.411 115.296 102.411 115.296 103.145 115.012C103.245 114.49 103.332 113.965 103.408 113.439C103.119 113.097 103.119 113.097 102.407 113.078C101.528 113.094 101.528 113.094 100.964 113.783Z" fill="#8B8B8B"/>
<path d="M267.442 112.388C267.355 113.166 267.269 113.945 267.179 114.748C266.919 114.748 266.66 114.748 266.392 114.748C266.219 114.315 266.046 113.882 265.867 113.437C265.255 113.425 264.642 113.426 264.03 113.437C263.702 113.712 263.702 113.712 263.679 114.321C263.694 115.043 263.694 115.043 264.266 115.445C264.48 115.567 264.695 115.688 264.916 115.813C265.809 116.325 266.293 116.651 266.654 117.632C266.788 118.658 266.693 119.13 266.212 120.057C265.551 120.843 265.255 121.012 264.292 121.303C263.436 121.363 263.436 121.363 262.537 121.352C262.089 121.35 262.089 121.35 261.632 121.347C260.88 121.303 260.88 121.303 260.355 121.041C260.485 119.873 260.485 119.873 260.618 118.681C260.878 118.681 261.138 118.681 261.405 118.681C261.665 119.2 261.925 119.719 262.193 120.254C263.45 120.316 263.45 120.316 264.555 119.73C264.729 118.968 264.729 118.968 264.555 118.156C263.998 117.533 263.998 117.533 263.259 117.042C261.946 116.09 261.946 116.09 261.668 115.534C261.521 114.459 261.619 114.038 262.209 113.109C263.735 111.49 265.492 111.878 267.442 112.388Z" fill="#8B8B8B"/>
<path d="M117.318 107.672C117.589 108.482 117.581 108.723 117.422 109.526C117.381 109.74 117.34 109.953 117.297 110.173C117.251 110.403 117.204 110.632 117.156 110.869C117.11 111.105 117.064 111.341 117.016 111.585C116.918 112.084 116.818 112.583 116.718 113.082C116.564 113.848 116.414 114.614 116.264 115.38C116.168 115.865 116.072 116.349 115.975 116.834C115.93 117.064 115.885 117.294 115.838 117.531C115.795 117.744 115.752 117.956 115.708 118.175C115.67 118.363 115.633 118.55 115.594 118.743C115.481 119.209 115.481 119.209 115.219 119.734C115.419 119.561 115.619 119.388 115.826 119.209C116.531 118.685 116.531 118.685 117.318 118.685C116.8 119.855 116.043 120.634 114.956 121.307C114.185 121.274 114.185 121.274 113.644 121.045C113.348 119.77 113.457 118.744 113.749 117.49C113.809 117.211 113.809 117.211 113.871 116.927C114.001 116.338 114.134 115.75 114.267 115.161C114.398 114.574 114.528 113.986 114.658 113.398C114.738 113.034 114.82 112.669 114.902 112.305C115.15 111.2 115.334 110.104 115.481 108.983C114.962 108.983 114.442 108.983 113.907 108.983C114.077 108.471 114.077 108.471 114.431 107.934C115.114 107.774 115.114 107.774 115.908 107.737C116.171 107.723 116.434 107.708 116.705 107.692C117.009 107.682 117.009 107.682 117.318 107.672Z" fill="#8B8B8B"/>
<path d="M153.801 107.932C154.841 107.932 155.88 107.932 156.951 107.932C156.171 111.826 155.392 115.719 154.589 119.731C155.022 119.385 155.455 119.039 155.901 118.682C156.074 118.682 156.247 118.682 156.426 118.682C156.236 119.83 155.685 120.276 154.813 120.991C154.187 121.394 153.742 121.437 153.014 121.305C152.303 119.883 152.884 118.067 153.211 116.586C153.257 116.367 153.304 116.149 153.352 115.923C153.5 115.231 153.65 114.54 153.801 113.848C153.903 113.376 154.004 112.905 154.105 112.433C154.351 111.282 154.601 110.131 154.851 108.98C154.331 108.98 153.812 108.98 153.276 108.98C153.449 108.634 153.623 108.288 153.801 107.932Z" fill="#8B8B8B"/>
<path d="M62.2049 109.504C62.4647 109.504 62.7246 109.504 62.9923 109.504C62.819 110.283 62.6458 111.061 62.4673 111.864C63.1602 111.95 63.8531 112.037 64.567 112.126C64.6536 112.472 64.7402 112.818 64.8294 113.175C63.9633 113.175 63.0972 113.175 62.2049 113.175C62.1761 113.384 62.1474 113.594 62.1177 113.81C61.8271 115.822 61.4233 117.769 60.8926 119.73C61.1362 119.557 61.3798 119.384 61.6308 119.206C62.4673 118.681 62.4673 118.681 63.2547 118.681C62.8875 119.547 62.4773 120.017 61.7292 120.582C61.4668 120.787 61.4668 120.787 61.1992 120.996C60.5189 121.364 60.0806 121.381 59.3179 121.304C59.0554 121.041 59.0554 121.041 58.998 120.303C59.0187 118.862 59.3901 117.474 59.7116 116.076C59.7742 115.796 59.8367 115.517 59.9012 115.229C60.055 114.544 60.2105 113.859 60.3677 113.175C59.848 113.261 59.3284 113.348 58.793 113.437C58.8796 113.004 58.9662 112.572 59.0554 112.126C59.3021 112.097 59.3021 112.097 59.5537 112.067C60.211 111.961 60.797 111.845 61.4175 111.602C61.8466 110.841 61.8466 110.841 61.9424 110.028C62.029 109.855 62.1157 109.682 62.2049 109.504Z" fill="#8B8B8B"/>
<path d="M147.767 111.869C148.784 112.557 148.784 112.557 149.079 113.442C149.306 113.126 149.306 113.126 149.538 112.803C150.129 112.131 150.129 112.131 150.67 111.869C151.179 111.869 151.179 111.869 151.654 112.164C151.966 112.656 151.966 112.656 151.884 113.36C151.824 113.561 151.765 113.761 151.703 113.967C151.503 114.005 151.303 114.043 151.097 114.082C150.37 114.219 150.37 114.219 149.604 114.491C148.49 116.515 147.88 118.838 147.242 121.047C146.635 121.047 146.029 121.047 145.405 121.047C145.573 120.063 145.743 119.08 145.913 118.097C145.961 117.818 146.009 117.539 146.058 117.252C146.105 116.983 146.151 116.714 146.199 116.437C146.242 116.19 146.284 115.943 146.328 115.688C146.437 115.107 146.566 114.539 146.717 113.967C146.565 114.048 146.414 114.129 146.258 114.213C145.707 114.473 145.208 114.616 144.617 114.754C145.528 113.32 146.241 112.616 147.767 111.869ZM148.554 113.705C148.816 114.229 148.816 114.229 148.816 114.229L148.554 113.705Z" fill="#8B8B8B"/>
<path d="M188.703 111.869C188.963 111.956 189.223 112.042 189.491 112.131C189.802 112.803 189.802 112.803 190.016 113.442C190.216 113.232 190.416 113.021 190.623 112.803C191.328 112.131 191.328 112.131 192.115 111.869C192.689 112.246 192.689 112.246 193.165 112.656C193.079 113.088 192.992 113.521 192.903 113.967C192.702 114.005 192.502 114.043 192.296 114.082C191.569 114.219 191.569 114.219 190.803 114.491C189.749 116.285 189.065 118.231 188.583 120.248C188.441 120.784 188.441 120.784 188.179 121.047C187.654 121.057 187.129 121.058 186.604 121.047C186.756 119.277 187.089 117.593 187.491 115.864C187.634 115.115 187.686 114.463 187.654 113.705C187.448 113.878 187.242 114.051 187.03 114.229C186.341 114.754 186.341 114.754 185.816 114.754C186.175 113.927 186.566 113.44 187.26 112.869C187.42 112.735 187.579 112.602 187.744 112.464C188.179 112.131 188.179 112.131 188.703 111.869ZM189.491 113.967C189.753 114.491 189.753 114.491 189.753 114.491L189.491 113.967Z" fill="#8B8B8B"/>
<path d="M71.6801 112.065C72.1722 112.393 72.1722 112.393 72.4347 113.179C72.1394 113.753 72.1394 113.753 71.6473 114.228C71.3388 114.204 71.3388 114.204 71.024 114.179C70.2622 114.158 70.2622 114.158 69.6789 114.884C68.6366 116.479 68.23 118.446 67.7105 120.259C67.6239 120.519 67.5373 120.778 67.448 121.046C66.8418 121.046 66.2355 121.046 65.6108 121.046C65.6705 120.754 65.6705 120.754 65.7313 120.456C65.9107 119.577 66.0888 118.697 66.267 117.817C66.3296 117.511 66.3922 117.205 66.4567 116.89C66.5159 116.596 66.5751 116.303 66.6361 116.001C66.691 115.731 66.746 115.46 66.8027 115.181C66.9456 114.478 66.9456 114.478 66.9231 113.704C66.7174 113.877 66.5117 114.05 66.2998 114.228C65.6108 114.753 65.6108 114.753 65.0859 114.753C65.5042 113.666 66.2605 112.822 67.1856 112.13C67.9401 112.032 67.9401 112.032 68.4979 112.13C68.6711 112.65 68.8443 113.169 69.0228 113.704C69.2231 113.449 69.4233 113.195 69.6297 112.933C70.2205 112.184 70.6777 111.711 71.6801 112.065Z" fill="#8B8B8B"/>
<path d="M279.255 109.508C279.079 110.553 278.902 111.598 278.723 112.642C278.663 112.997 278.603 113.351 278.543 113.706C277.982 117.033 277.982 117.033 277.637 118.342C277.375 119.231 277.375 119.231 277.418 120.259C277.764 120.346 278.111 120.432 278.468 120.521C278.468 120.781 278.468 121.041 278.468 121.308C276.736 121.308 275.003 121.308 273.219 121.308C273.305 121.049 273.392 120.789 273.481 120.521C273.73 120.467 273.979 120.413 274.236 120.358C275.054 120.092 275.054 120.092 275.307 119.578C275.532 118.936 275.693 118.3 275.843 117.637C275.916 117.328 275.989 117.018 276.065 116.699C276.479 114.805 276.754 113.021 276.631 111.082C275.851 110.952 275.851 110.952 275.056 110.82C275.056 110.646 275.056 110.473 275.056 110.295C275.46 110.161 275.864 110.031 276.27 109.902C276.495 109.829 276.72 109.756 276.953 109.681C277.743 109.494 278.445 109.497 279.255 109.508Z" fill="#8B8B8B"/>
<path d="M196.317 111.869C196.858 112.115 196.858 112.115 197.367 112.656C197.405 114.281 196.929 115.95 196.563 117.523C196.514 117.738 196.465 117.952 196.415 118.173C196.296 118.694 196.175 119.215 196.054 119.736C196.255 119.563 196.455 119.389 196.661 119.211C197.367 118.687 197.367 118.687 198.154 118.687C197.633 119.866 196.862 120.603 195.792 121.309C195.037 121.424 195.037 121.424 194.48 121.309C194.217 121.047 194.217 121.047 194.168 120.292C194.187 118.95 194.476 117.654 194.742 116.343C194.792 116.089 194.842 115.834 194.894 115.572C195.017 114.949 195.141 114.327 195.267 113.705C195.061 113.878 194.855 114.051 194.644 114.229C193.955 114.754 193.955 114.754 193.43 114.754C193.788 113.927 194.179 113.44 194.873 112.869C195.033 112.735 195.193 112.602 195.357 112.464C195.792 112.131 195.792 112.131 196.317 111.869Z" fill="#8B8B8B"/>
<path d="M55.1175 111.869C55.6916 112.246 55.6916 112.246 56.1673 112.656C55.9914 114.254 55.7053 115.805 55.3635 117.376C55.3146 117.604 55.2658 117.832 55.2154 118.067C55.0961 118.623 54.9757 119.18 54.855 119.736C55.0607 119.563 55.2664 119.389 55.4784 119.211C56.1673 118.687 56.1673 118.687 56.6922 118.687C56.5024 119.834 55.9522 120.281 55.0785 120.994C54.4461 121.404 54.0158 121.46 53.2803 121.309C53.0178 121.047 53.0178 121.047 52.9686 120.153C52.9856 118.8 53.2586 117.515 53.5427 116.196C53.5928 115.955 53.6429 115.714 53.6945 115.466C53.817 114.879 53.9414 114.292 54.0677 113.705C53.862 113.878 53.6563 114.051 53.4443 114.229C52.7554 114.754 52.7554 114.754 52.2305 114.754C52.6501 113.664 53.4412 112.866 54.3301 112.131C54.5899 112.045 54.8498 111.958 55.1175 111.869Z" fill="#8B8B8B"/>
<path d="M257.207 111.869C257.553 112.042 257.899 112.215 258.256 112.394C258.39 114.767 257.991 116.913 257.469 119.211C257.642 119.211 257.815 119.211 257.994 119.211C258.167 119.038 258.34 118.865 258.519 118.687C258.779 118.687 259.039 118.687 259.306 118.687C259.014 119.563 258.737 119.833 258.06 120.44C257.882 120.604 257.705 120.767 257.522 120.935C256.831 121.382 256.44 121.404 255.632 121.309C255.369 121.047 255.369 121.047 255.32 120.292C255.339 118.95 255.629 117.654 255.894 116.343C255.944 116.089 255.994 115.834 256.046 115.572C256.169 114.949 256.293 114.327 256.419 113.705C256.214 113.878 256.008 114.051 255.796 114.229C255.107 114.753 255.107 114.753 254.582 114.753C254.962 113.85 255.442 113.348 256.19 112.721C256.38 112.56 256.57 112.4 256.766 112.234C256.984 112.053 256.984 112.053 257.207 111.869Z" fill="#8B8B8B"/>
<path d="M56.0549 107.834C57.092 108.418 57.3835 109.456 57.7445 110.554C57.7445 110.728 57.7445 110.901 57.7445 111.079C56.4978 110.882 56.4978 110.882 55.9073 110.292C55.1165 110.394 54.7533 110.624 54.0701 111.079C53.3647 111.112 53.3647 111.112 52.7578 111.079C52.7578 110.554 52.7578 110.554 53.3319 109.948C53.5755 109.716 53.8191 109.483 54.0701 109.243C54.2866 108.995 54.5031 108.746 54.7262 108.49C55.3824 107.932 55.3824 107.932 56.0549 107.834Z" fill="#8B8B8B"/>
<path d="M123.027 108.454C123.617 108.978 123.617 108.978 123.798 109.699C123.546 110.887 122.963 111.607 122.043 112.387C121.288 112.633 121.288 112.633 120.73 112.649C120.817 112.389 120.904 112.13 120.993 111.862C121.166 111.862 121.339 111.862 121.518 111.862C121.604 111.343 121.691 110.824 121.78 110.289C121.607 110.289 121.434 110.289 121.255 110.289C121.255 109.77 121.255 109.251 121.255 108.716C121.974 108.211 122.181 108.146 123.027 108.454Z" fill="#8B8B8B"/>
<path d="M197.565 108.55C197.76 108.691 197.955 108.831 198.156 108.976C198.069 109.409 197.983 109.842 197.893 110.287C197.155 110.468 197.155 110.468 196.319 110.55C195.81 110.238 195.81 110.238 195.531 109.763C195.548 109.222 195.548 109.222 195.794 108.714C196.521 108.117 196.711 108.124 197.565 108.55Z" fill="#8B8B8B"/>
<path d="M257.73 108.193C258.369 108.39 258.369 108.39 259.042 108.718C259.304 109.226 259.304 109.226 259.304 109.767C259.025 110.242 259.025 110.242 258.517 110.553C257.68 110.471 257.68 110.471 256.942 110.291C256.745 109.832 256.745 109.832 256.68 109.242C257.188 108.652 257.188 108.652 257.73 108.193Z" fill="#8B8B8B"/>
</svg>
