<svg width="220" height="117" viewBox="0 0 220 117" fill="none" xmlns="http://www.w3.org/2000/svg">
<g clip-path="url(#clip0_203_1896)">
<path d="M94.2455 0C97.8645 0 101.484 0 105.212 0C105.212 9.3389 105.212 18.6778 105.212 28.2997C107.361 27.5121 109.51 26.7244 111.724 25.913C112.402 25.6879 113.081 25.4629 113.78 25.231C113.893 16.9048 114.006 8.57856 114.123 0C117.629 0 121.135 0 124.747 0C124.86 6.63849 124.973 13.277 125.089 20.1166C130.378 16.0245 131.999 11.9421 132.877 5.54693C133.103 3.70196 133.215 1.8563 133.315 0C135.689 0 138.064 0 140.511 0C140.6 8.70683 139.474 17.2181 133.167 23.7591C130.745 26.1512 128.076 27.672 125.089 29.3226C124.92 45.3562 124.92 45.3562 124.747 61.7138C121.241 61.7138 117.735 61.7138 114.123 61.7138C114.123 52.4874 114.123 43.261 114.123 33.755C110.56 34.9365 110.56 34.9365 106.926 36.1418C106.36 36.2543 105.795 36.3668 105.212 36.4827C105.212 44.809 105.212 53.1352 105.212 61.7138C101.593 61.7138 97.9742 61.7138 94.2455 61.7138C94.2455 55.1878 94.2455 48.6618 94.2455 41.9381C89.7652 45.2811 87.2668 48.999 86.3632 54.5536C86.0732 56.936 85.8781 59.3218 85.6777 61.7138C83.3028 61.7138 80.9278 61.7138 78.4808 61.7138C78.1953 53.0973 79.7838 45.2833 85.7112 38.7602C87.9721 36.4197 90.5365 34.3516 93.5601 33.0731C93.7863 33.0731 94.0125 33.0731 94.2455 33.0731C94.2455 22.159 94.2455 11.2449 94.2455 0Z" fill="#8B8B8B"/>
<path d="M82.5938 80.1263C88.0541 80.0735 88.0541 80.0735 93.6247 80.0197C94.765 80.0042 95.9054 79.9887 97.0802 79.9727C97.9967 79.9677 98.9132 79.9634 99.8297 79.9598C100.061 79.9553 100.293 79.9509 100.532 79.9463C104.353 79.8766 108.109 80.3028 111.06 82.9605C113.012 85.1725 113.917 87.644 113.878 90.5868C113.592 92.9023 112.788 94.9274 111.039 96.4924C111.303 97.5584 111.303 97.5584 112.153 98.2185C114.108 100.135 114.918 102.308 115.001 105.016C114.884 107.923 114.088 110.51 112.044 112.655C106.985 116.814 99.8645 116.028 93.7249 115.997C92.4128 115.991 91.1008 115.99 89.7887 115.99C88.9553 115.989 88.122 115.987 87.2886 115.984C86.6997 115.984 86.6997 115.984 86.0988 115.983C85.7381 115.981 85.3774 115.979 85.0057 115.977C84.6879 115.975 84.37 115.974 84.0426 115.973C83.2792 115.927 83.2792 115.927 82.5938 115.586C82.5938 103.884 82.5938 92.1826 82.5938 80.1263ZM90.1334 86.9455C90.1334 89.3083 90.1334 91.6712 90.1334 94.1056C91.749 94.1214 93.3643 94.1349 94.9799 94.1431C95.5287 94.1465 96.0775 94.1511 96.6262 94.1571C97.4183 94.1654 98.2103 94.1692 99.0024 94.1722C99.2448 94.1757 99.4873 94.1793 99.7372 94.1829C101.718 94.1833 103.509 94.0269 105.02 92.6779C105.708 91.4451 105.755 90.7242 105.555 89.3322C104.876 88.1162 104.427 87.7136 103.107 87.244C101.714 86.9294 100.42 86.8583 99.0024 86.8789C98.7471 86.8798 98.4919 86.8808 98.2289 86.8818C97.4224 86.8856 96.616 86.8941 95.8095 86.9029C95.2591 86.9063 94.7087 86.9094 94.1582 86.9122C92.8165 86.9191 91.4751 86.9324 90.1334 86.9455ZM90.1334 100.584C90.1334 103.284 90.1334 105.985 90.1334 108.767C91.8954 108.783 93.6572 108.796 95.4192 108.804C96.0178 108.808 96.6165 108.812 97.2151 108.818C98.0786 108.827 98.942 108.831 99.8056 108.834C100.071 108.837 100.336 108.841 100.609 108.844C102.601 108.845 104.452 108.706 106.048 107.403C106.823 105.922 106.808 104.608 106.583 102.971C106.022 101.631 105.511 101.129 104.185 100.584C103.48 100.487 103.48 100.487 102.739 100.506C102.458 100.507 102.177 100.507 101.887 100.507C101.587 100.51 101.286 100.514 100.977 100.517C100.667 100.518 100.357 100.519 100.038 100.52C99.0495 100.524 98.0614 100.533 97.0733 100.541C96.4026 100.545 95.7319 100.548 95.0612 100.551C93.4185 100.558 91.7761 100.571 90.1334 100.584Z" fill="#8B8B8B"/>
<path d="M180.613 82.5127C181.586 83.2491 182.535 83.9931 183.354 84.8994C183.354 85.1244 183.354 85.3495 183.354 85.5813C183.581 85.5813 183.807 85.5813 184.04 85.5813C187.668 90.1778 188.499 95.1563 188.083 100.854C187.442 105.542 184.755 109.522 181.17 112.514C176.892 115.693 171.749 117.142 166.448 116.462C160.863 115.535 156.282 113.02 152.896 108.426C149.815 103.752 149.032 98.657 150.176 93.1677C150.893 90.4041 152.139 87.8521 153.881 85.5813C154.107 85.5813 154.334 85.5813 154.567 85.5813C154.645 85.384 154.723 85.1866 154.804 84.9833C156.539 82.02 160.907 80.3431 164.069 79.4067C169.823 78.0454 175.72 79.3253 180.613 82.5127ZM159.365 91.0367C157.616 93.8129 156.809 96.853 157.492 100.089C157.998 101.903 158.7 103.426 159.707 105.016C159.934 105.016 160.16 105.016 160.393 105.016C160.473 105.219 160.553 105.422 160.635 105.631C161.643 107.334 163.883 108.173 165.662 108.894C169.321 109.522 172.422 109.142 175.635 107.242C178.004 105.575 179.591 103.344 180.399 100.562C180.947 97.1238 180.597 94.0866 178.609 91.1126C176.46 88.5329 173.96 86.7619 170.555 86.4097C166.104 86.1488 162.145 87.364 159.365 91.0367Z" fill="#8B8B8B"/>
<path d="M0 80.125C2.37498 80.125 4.74997 80.125 7.19692 80.125C7.19692 84.4006 7.19692 88.6763 7.19692 93.0815C12.8516 93.0815 18.5064 93.0815 24.3324 93.0815C24.3324 88.8058 24.3324 84.5302 24.3324 80.125C26.8205 80.125 29.3086 80.125 31.8721 80.125C31.8721 91.8267 31.8721 103.528 31.8721 115.585C31.0939 115.972 30.6579 115.97 29.7944 115.971C29.5214 115.972 29.2484 115.972 28.9671 115.972C28.6817 115.971 28.3963 115.97 28.1023 115.968C27.8169 115.97 27.5315 115.971 27.2374 115.972C26.8279 115.972 26.8279 115.972 26.4101 115.971C26.1596 115.971 25.9092 115.97 25.6511 115.97C25.0179 115.926 25.0179 115.926 24.3324 115.585C24.3324 110.747 24.3324 105.908 24.3324 100.924C18.6777 100.924 13.023 100.924 7.19692 100.924C7.19692 105.762 7.19692 110.6 7.19692 115.585C5.04878 116.653 2.40169 115.926 0 115.926C0 104.112 0 92.2973 0 80.125Z" fill="#8B8B8B"/>
<path d="M41.1262 80.125C43.6142 80.125 46.1023 80.125 48.6658 80.125C48.6708 80.7543 48.6758 81.3836 48.6809 82.0319C48.6987 84.1264 48.7211 86.2207 48.7466 88.3151C48.7618 89.5832 48.7753 90.8512 48.7845 92.1194C48.7935 93.3464 48.8074 94.5733 48.8245 95.8003C48.8329 96.4891 48.8364 97.178 48.8398 97.8669C48.8881 100.927 49.1029 103.982 50.5935 106.72C52.8245 108.589 54.9149 108.898 57.769 108.936C58.0443 108.942 58.3196 108.949 58.6031 108.955C60.7812 108.933 62.6229 108.407 64.2691 106.932C65.8898 105.137 66.227 103.297 66.2533 100.95C66.2568 100.723 66.2602 100.497 66.2637 100.264C66.2742 99.5219 66.2801 98.7804 66.2859 98.0387C66.2924 97.5218 66.2991 97.0049 66.3061 96.488C66.3236 95.1327 66.3372 93.7774 66.35 92.422C66.3637 91.0369 66.3812 89.6518 66.3984 88.2668C66.4315 85.5529 66.4601 82.839 66.4867 80.125C69.0879 80.125 71.6891 80.125 74.3691 80.125C74.3925 82.8818 74.4113 85.6386 74.4224 88.3955C74.4277 89.6762 74.4349 90.9568 74.4467 92.2375C74.458 93.4777 74.464 94.7179 74.4666 95.9582C74.4685 96.427 74.4722 96.8957 74.4778 97.3645C74.5458 103.273 73.7877 108.789 69.5711 113.198C65.7509 116.679 60.4697 116.865 55.5642 116.716C51.2701 116.499 47.7594 115.216 44.7675 112.069C43.5542 110.623 42.7946 109.165 42.1543 107.402C42.02 107.078 41.8857 106.755 41.7473 106.422C40.9115 103.223 41.0796 99.8199 41.0927 96.5404C41.0933 96.0641 41.0938 95.5879 41.0942 95.1116C41.0955 93.8712 41.0988 92.6308 41.1026 91.3904C41.1062 90.1194 41.1077 88.8485 41.1094 87.5775C41.1131 85.0933 41.1191 82.6092 41.1262 80.125Z" fill="#8B8B8B"/>
<path d="M190.203 80.125C199.816 80.125 209.429 80.125 219.334 80.125C219.334 82.7129 219.334 85.3008 219.334 87.9671C215.828 87.9671 212.322 87.9671 208.709 87.9671C208.709 97.0809 208.709 106.195 208.709 115.585C206.221 115.585 203.733 115.585 201.17 115.585C201.17 106.471 201.17 97.3571 201.17 87.9671C197.551 87.9671 193.932 87.9671 190.203 87.9671C190.203 85.3792 190.203 82.7913 190.203 80.125Z" fill="#8B8B8B"/>
<path d="M123.719 80.125C126.32 80.125 128.921 80.125 131.601 80.125C131.601 89.2389 131.601 98.3527 131.601 107.743C136.999 107.729 136.999 107.729 142.398 107.712C143.072 107.711 143.745 107.71 144.419 107.709C144.949 107.707 144.949 107.707 145.49 107.704C145.824 107.704 146.158 107.704 146.502 107.704C146.794 107.703 147.085 107.703 147.385 107.702C148.051 107.743 148.051 107.743 148.394 108.084C148.394 110.559 148.394 113.034 148.394 115.585C140.251 115.585 132.108 115.585 123.719 115.585C123.719 103.883 123.719 92.1813 123.719 80.125Z" fill="#8B8B8B"/>
</g>
<defs>
<clipPath id="clip0_203_1896">
<rect width="219.335" height="116.608" fill="white"/>
</clipPath>
</defs>
</svg>
