<svg width="259" height="137" viewBox="0 0 259 137" fill="none" xmlns="http://www.w3.org/2000/svg">
<g clip-path="url(#clip0_203_1982)">
<path d="M150.527 14.4464C151.381 15.2523 152.18 16.0717 152.905 16.9955C152.983 17.0914 153.062 17.1872 153.142 17.286C153.881 18.2068 154.512 19.187 155.124 20.1942C155.168 20.2664 155.212 20.3387 155.258 20.4131C156.917 23.1521 157.984 26.2545 158.553 29.3903C158.57 29.4775 158.586 29.5646 158.603 29.6544C159.159 32.7077 159.033 36.0473 158.452 39.0863C158.421 39.2519 158.421 39.2519 158.388 39.421C157.143 45.7014 153.774 51.5133 149.173 55.9792C148.904 56.2445 148.637 56.5112 148.372 56.7804C147.698 57.4621 147.006 58.0878 146.248 58.6781C146.125 58.7769 146.001 58.876 145.878 58.9752C145.179 59.537 144.476 60.0812 143.727 60.5773C144.287 60.6923 144.838 60.6976 145.408 60.7044C145.515 60.7061 145.622 60.7077 145.733 60.7093C146.717 60.7233 147.701 60.7312 148.685 60.7372C149.345 60.7413 150.006 60.7474 150.666 60.7581C151.306 60.7685 151.945 60.7739 152.585 60.776C152.829 60.7775 153.072 60.7809 153.316 60.786C153.656 60.7928 153.997 60.7933 154.338 60.7923C154.438 60.7957 154.538 60.7992 154.641 60.8027C155.078 60.7956 155.325 60.7783 155.641 60.4631C155.823 60.2081 155.98 59.9514 156.133 59.6776C156.228 59.5242 156.323 59.3709 156.419 59.2181C156.509 59.0694 156.598 58.9206 156.687 58.7718C157.071 58.1421 157.456 57.5321 157.948 56.9788C158.005 56.9146 158.061 56.8504 158.119 56.7843C158.685 56.1825 159.344 55.8009 160.184 55.766C160.356 55.7664 160.356 55.7664 160.533 55.7668C160.648 55.7665 160.764 55.7663 160.883 55.766C161.176 55.7793 161.176 55.7793 161.377 55.8792C161.245 56.3008 161.083 56.6818 160.878 57.0733C160.818 57.1877 160.759 57.3021 160.697 57.4199C160.632 57.5436 160.566 57.6673 160.501 57.7909C160.433 57.9208 160.365 58.0506 160.297 58.1805C159.722 59.2733 159.135 60.3598 158.546 61.4449C158.257 61.9775 157.97 62.5113 157.684 63.0458C157.626 63.1552 157.626 63.1552 157.566 63.2669C157.412 63.5548 157.258 63.8427 157.104 64.1308C156.998 64.3289 156.893 64.527 156.787 64.7251C156.726 64.8387 156.665 64.9523 156.603 65.0693C156.548 65.1703 156.492 65.2712 156.435 65.3753C156.376 65.5065 156.376 65.5065 156.316 65.6405C156.133 65.875 156.133 65.875 155.83 65.9368C155.705 65.9365 155.579 65.9362 155.45 65.9358C155.381 65.9363 155.311 65.9368 155.239 65.9373C155.004 65.9384 154.769 65.9359 154.535 65.9334C154.366 65.9334 154.198 65.9336 154.03 65.9341C153.571 65.9347 153.112 65.9321 152.653 65.929C152.168 65.9263 151.684 65.9263 151.199 65.9259C150.38 65.925 149.562 65.9223 148.743 65.9182C147.606 65.9127 146.469 65.9103 145.332 65.9087C138.699 65.8985 138.699 65.8985 135.467 65.829C135.378 65.8271 135.289 65.8252 135.198 65.8232C133.938 65.7951 132.68 65.7387 131.422 65.6751C131.561 65.3882 131.686 65.1917 131.924 64.9766C131.982 64.9229 132.041 64.8691 132.102 64.8137C132.165 64.7578 132.227 64.7019 132.292 64.6443C132.356 64.586 132.42 64.5277 132.486 64.4677C132.863 64.1267 133.245 63.7912 133.631 63.4604C134.087 63.0621 134.531 62.6495 134.976 62.2393C135.148 62.0818 135.32 61.9253 135.493 61.769C136.306 61.0283 137.095 60.2634 137.877 59.4902C137.927 59.441 137.977 59.3918 138.028 59.3411C138.605 58.7715 139.162 58.1917 139.692 57.5785C139.835 57.4241 139.978 57.27 140.121 57.1162C140.634 56.5519 141.104 55.9572 141.572 55.3557C141.703 55.1876 141.836 55.0206 141.969 54.8539C142.964 53.6001 143.835 52.2652 144.634 50.8813C144.684 50.7962 144.733 50.711 144.784 50.6233C149.006 43.2703 150.47 34.302 148.233 26.078C147.232 22.5523 145.59 19.3112 143.222 16.4957C143.155 16.4153 143.155 16.4153 143.086 16.3333C142.112 15.1772 141.098 14.1229 139.894 13.1971C139.84 13.1553 139.787 13.1134 139.731 13.0703C136.395 10.4808 132.285 8.97291 128.093 8.49906C128.012 8.48964 127.93 8.48022 127.846 8.47051C121.842 7.8497 115.667 9.4324 110.918 13.1575C110.509 13.4873 110.123 13.8404 109.737 14.1967C109.605 14.3096 109.472 14.422 109.339 14.534C108.4 15.3507 107.597 16.2273 106.848 17.2148C106.714 17.3905 106.578 17.5638 106.44 17.737C102.927 22.239 101.345 28.1508 101.34 33.776C101.34 33.8491 101.34 33.9222 101.34 33.9975C101.351 42.0942 104.491 49.9086 109.691 56.104C109.892 56.3451 110.088 56.5905 110.285 56.8351C111.205 57.9446 112.232 58.9609 113.254 59.9775C113.343 60.0659 113.431 60.1543 113.523 60.2453C113.966 60.6834 114.415 61.1069 114.89 61.5111C115.223 61.7984 115.543 62.1006 115.864 62.4015C116.299 62.8084 116.736 63.2142 117.179 63.6126C117.658 64.0429 118.127 64.4818 118.587 64.9317C118.64 64.983 118.693 65.0343 118.748 65.0872C118.875 65.2126 118.996 65.3435 119.117 65.4752C119.117 65.5412 119.117 65.6072 119.117 65.6751C110.887 66.0374 102.64 65.874 94.4056 65.7751C94.3597 65.6866 94.3139 65.5982 94.2666 65.5071C94.0938 65.174 93.9207 64.8411 93.7477 64.5082C93.6733 64.365 93.5989 64.2218 93.5246 64.0785C93.0997 63.2595 92.6702 62.4441 92.2182 61.6393C91.6617 60.6392 91.1322 59.6259 90.6056 58.6101C90.5087 58.4233 90.4117 58.2365 90.3146 58.0499C90.1772 57.7858 90.0405 57.5213 89.9039 57.2568C89.8625 57.1772 89.821 57.0976 89.7783 57.0157C89.5701 56.6104 89.3928 56.2171 89.2617 55.7793C90.0645 55.574 90.8316 55.6288 91.5815 55.9792C92.683 56.6243 93.3486 57.6732 93.9707 58.7468C94.3504 59.3971 94.7155 60.0094 95.2125 60.5773C95.2125 60.6432 95.2125 60.7092 95.2125 60.7772C99.0735 60.7442 102.934 60.7112 106.912 60.6772C106.38 60.2814 105.847 59.8856 105.299 59.4777C104.508 58.8294 103.736 58.1645 102.979 57.4786C102.878 57.3878 102.777 57.2971 102.676 57.2064C101.892 56.501 101.131 55.7873 100.44 54.9905C100.24 54.7621 100.034 54.5401 99.8269 54.3174C99.2638 53.697 98.7464 53.0456 98.2383 52.3807C98.1863 52.3126 98.1342 52.2446 98.0806 52.1744C94.1462 46.9922 91.7537 40.6509 91.7643 34.1383C91.7644 34.0685 91.7645 33.9986 91.7645 33.9266C91.7673 32.7384 91.8176 31.5675 91.985 30.3899C92.0037 30.2567 92.0037 30.2567 92.0227 30.1208C92.9965 23.4507 96.3857 17.1824 101.768 12.9972C101.882 12.9044 101.996 12.8113 102.11 12.718C103.061 11.941 104.058 11.2541 105.097 10.5982C105.159 10.559 105.22 10.5197 105.284 10.4793C110.3 7.3187 116.231 5.54052 122.142 5.10049C122.217 5.09485 122.291 5.08921 122.367 5.0834C132.52 4.35061 143.058 7.45604 150.527 14.4464Z" fill="#8B8B8B"/>
<path d="M96.7272 78.7695C96.7938 78.7695 96.8603 78.7695 96.9289 78.7695C99.5816 86.7328 99.5816 86.7328 100.86 90.726C101.045 91.3039 101.23 91.8815 101.416 92.4591C102.589 96.1059 103.746 99.7572 104.895 103.411C105.132 104.166 105.37 104.921 105.607 105.675C106.444 108.334 107.281 110.993 108.114 113.653C108.139 113.731 108.163 113.808 108.188 113.888C108.31 114.277 108.431 114.666 108.553 115.054C108.589 115.169 108.589 115.169 108.626 115.286C108.674 115.439 108.722 115.593 108.77 115.747C109.572 118.305 110.378 120.862 111.188 123.417C111.601 124.72 112.013 126.023 112.421 127.327C112.456 127.438 112.491 127.548 112.526 127.662C112.558 127.763 112.589 127.864 112.622 127.968C112.649 128.056 112.677 128.145 112.705 128.236C112.764 128.449 112.764 128.449 112.764 128.649C110.201 128.649 107.638 128.649 104.998 128.649C104.138 126.065 103.298 123.477 102.489 120.877C102.467 120.807 102.445 120.737 102.423 120.664C101.856 118.841 101.294 117.017 100.734 115.192C100.519 114.488 100.303 113.784 100.087 113.08C100.06 112.993 100.034 112.906 100.006 112.816C99.0767 109.786 98.118 106.766 97.1268 103.754C96.9671 103.268 96.8083 102.782 96.6496 102.296C96.3735 101.451 96.0968 100.606 95.8195 99.7607C95.3917 100.554 95.0532 101.376 94.7173 102.21C94.5506 102.623 94.3824 103.036 94.2143 103.449C94.1799 103.534 94.1454 103.618 94.1099 103.706C93.5167 105.162 92.9028 106.61 92.2893 108.057C92.2525 108.144 92.2156 108.231 92.1776 108.321C91.1139 110.832 90.0383 113.337 88.943 115.834C88.7663 116.238 88.5899 116.641 88.4137 117.044C88.1969 117.54 87.9801 118.036 87.7632 118.532C87.5548 119.008 87.3468 119.484 87.1391 119.961C86.4757 121.482 85.8058 123 85.1328 124.516C84.3162 126.357 83.5103 128.202 82.7075 130.048C82.6077 130.048 82.5078 130.048 82.4049 130.048C82.3778 129.983 82.3506 129.917 82.3226 129.85C80.7439 126.056 79.1357 122.275 77.5099 118.5C77.1579 117.683 76.8068 116.865 76.4561 116.047C75.4251 113.642 74.388 111.241 73.3299 108.848C73.0876 108.3 72.8464 107.751 72.6057 107.203C71.8681 105.522 71.1273 103.842 70.3813 102.165C70.2949 101.971 70.2086 101.776 70.1223 101.582C70.0027 101.312 69.8827 101.043 69.7626 100.774C69.7267 100.692 69.6907 100.611 69.6537 100.528C69.5135 100.169 69.5135 100.169 69.293 99.8607C69.2718 99.93 69.2507 99.9993 69.2289 100.071C68.1482 103.61 67.0578 107.146 65.9457 110.675C65.9201 110.756 65.8946 110.837 65.8682 110.921C65.639 111.648 65.4097 112.376 65.1803 113.103C64.7323 114.524 64.2855 115.945 63.8402 117.366C63.8051 117.478 63.77 117.59 63.7339 117.705C63.2601 119.217 62.7901 120.731 62.3218 122.245C62.2953 122.33 62.2689 122.416 62.2416 122.504C61.9785 123.355 61.7155 124.205 61.453 125.056C61.3557 125.371 61.2584 125.687 61.1611 126.002C61.1158 126.148 61.0705 126.295 61.0253 126.442C60.7978 127.181 60.5674 127.917 60.3164 128.649C59.4693 128.651 58.6223 128.653 57.7753 128.654C57.3818 128.654 56.9884 128.655 56.595 128.656C56.2143 128.657 55.8337 128.658 55.4531 128.658C55.3089 128.658 55.1646 128.659 55.0203 128.659C54.1585 128.662 53.3071 128.637 52.4492 128.549C52.5085 128.026 52.6336 127.556 52.8121 127.06C52.8677 126.901 52.9233 126.743 52.9789 126.585C53.0234 126.459 53.0234 126.459 53.0688 126.331C53.6622 124.652 54.2247 122.965 54.769 121.27C54.8029 121.165 54.8367 121.06 54.8716 120.951C55.0417 120.421 55.2114 119.891 55.3809 119.361C55.5635 118.791 55.7474 118.221 55.9317 117.651C57.082 114.09 58.1941 110.518 59.2908 106.941C64.2821 90.6625 64.2821 90.6625 67.7549 80.8749C67.7935 80.7678 67.7935 80.7678 67.833 80.6586C67.9046 80.4609 67.9769 80.2636 68.0496 80.0663C68.0902 79.9552 68.1309 79.8441 68.1728 79.7297C68.2844 79.4692 68.2844 79.4692 68.4861 79.2693C68.9515 80.1711 69.3838 81.0798 69.7847 82.0119C69.8694 82.2075 69.9543 82.4031 70.0392 82.5986C70.0993 82.737 70.1594 82.8754 70.2194 83.0139C70.5541 83.7859 70.8935 84.5559 71.2329 85.3259C72.7804 88.8383 74.3072 92.3595 75.8292 95.8829C76.1122 96.5379 76.3957 97.1926 76.6799 97.8471C77.6235 100.021 78.548 102.202 79.4661 104.386C79.5803 104.658 79.6946 104.929 79.8089 105.201C80.7253 107.379 81.6301 109.561 82.5058 111.756C83.3359 109.949 84.151 108.137 84.9437 106.313C85.3286 105.428 85.7169 104.545 86.1048 103.662C86.3252 103.16 86.5454 102.658 86.7656 102.156C87.228 101.102 87.228 101.102 87.4257 100.651C88.6218 97.9273 89.7996 95.1954 90.9781 92.4638C91.0418 92.3162 91.0418 92.3162 91.1068 92.1656C92.6449 88.6007 94.1419 85.0195 95.6203 81.4298C95.9861 80.5417 96.3527 79.6541 96.7272 78.7695Z" fill="#8B8B8B"/>
<path d="M193.047 82.0715C193.196 82.1492 193.344 82.2269 193.492 82.3046C195.441 83.3402 197.216 84.6211 198.828 86.1202C199.059 86.3328 199.294 86.5367 199.534 86.7383C199.862 87.0204 200.145 87.3244 200.425 87.6524C200.635 87.8964 200.854 88.1323 201.072 88.3689C202.125 89.5283 202.125 89.5283 202.125 89.9682C201.881 90.1609 201.639 90.3338 201.381 90.5055C201.222 90.6137 201.064 90.722 200.905 90.8304C200.823 90.8862 200.741 90.9419 200.656 90.9994C200.272 91.2625 199.893 91.5333 199.515 91.805C199.404 91.8843 199.404 91.8843 199.291 91.9653C198.28 92.6912 197.273 93.4232 196.275 94.1665C195.891 94.0176 195.739 93.8144 195.512 93.4793C195.045 92.8213 194.515 92.2482 193.955 91.6675C193.88 91.5881 193.806 91.5088 193.729 91.427C191.042 88.6518 186.802 86.7889 182.961 86.4697C182.883 86.4631 182.805 86.4566 182.724 86.4498C178.346 86.1072 173.714 87.2664 170.253 90.0307C170.083 90.175 169.915 90.3207 169.749 90.468C169.663 90.542 169.577 90.6159 169.489 90.6921C169.236 90.9139 168.987 91.1396 168.74 91.3676C168.668 91.4326 168.596 91.4975 168.521 91.5644C165.077 94.7978 163.329 99.7589 163.196 104.362C163.149 107.456 163.999 110.658 165.512 113.358C165.567 113.46 165.621 113.562 165.677 113.666C167.924 117.699 171.927 120.581 176.335 121.881C180.818 123.106 185.741 122.544 189.82 120.356C189.926 120.299 190.031 120.242 190.14 120.184C191.6 119.37 192.839 118.363 194.021 117.192C194.158 117.055 194.298 116.92 194.441 116.789C195.868 115.463 196.876 113.72 197.719 111.99C197.76 111.906 197.801 111.822 197.843 111.735C198.063 111.274 198.247 110.812 198.407 110.327C198.443 110.22 198.478 110.114 198.515 110.004C198.554 109.883 198.554 109.883 198.595 109.76C198.512 109.76 198.429 109.76 198.343 109.76C196.324 109.762 194.304 109.764 192.285 109.765C191.308 109.766 190.332 109.766 189.355 109.767C188.504 109.768 187.652 109.769 186.801 109.769C186.35 109.769 185.899 109.77 185.449 109.771C185.024 109.771 184.6 109.771 184.175 109.771C184.02 109.771 183.864 109.771 183.709 109.772C183.496 109.772 183.283 109.772 183.07 109.772C182.951 109.772 182.832 109.772 182.709 109.772C182.321 109.759 181.935 109.708 181.549 109.66C181.549 107.318 181.549 104.976 181.549 102.563C189.87 102.563 198.191 102.563 206.764 102.563C206.764 104.922 206.764 104.922 206.689 105.837C206.68 105.945 206.671 106.054 206.662 106.165C206.183 111.567 204.159 116.874 200.511 120.955C200.438 121.039 200.365 121.123 200.289 121.209C199.841 121.714 199.37 122.196 198.891 122.673C198.834 122.73 198.777 122.787 198.718 122.846C196.88 124.661 194.694 126.174 192.342 127.259C192.206 127.322 192.07 127.386 191.934 127.451C187.303 129.662 181.865 130.309 176.809 129.452C176.669 129.428 176.669 129.428 176.526 129.405C172.699 128.738 168.957 127.16 165.916 124.754C165.822 124.68 165.728 124.606 165.631 124.53C164.002 123.228 162.452 121.803 161.206 120.132C161.07 119.949 160.931 119.768 160.792 119.588C160.149 118.746 159.576 117.879 159.057 116.957C159.01 116.874 158.963 116.791 158.915 116.706C155.632 110.848 154.833 103.947 156.64 97.4835C157.551 94.4094 159.063 91.4766 161.074 88.9686C161.145 88.8791 161.216 88.7895 161.29 88.6973C162.483 87.2205 163.809 85.8393 165.311 84.6704C165.41 84.5913 165.51 84.5122 165.612 84.4307C169.391 81.4734 174.123 79.5936 178.927 79.1727C178.993 79.1666 179.059 79.1604 179.127 79.154C183.907 78.7273 188.839 79.8083 193.047 82.0715Z" fill="#8B8B8B"/>
<path d="M29.9566 79.4711C30.1033 79.5 30.1033 79.5 30.253 79.5296C32.5558 79.9991 34.8027 80.7474 36.916 81.7701C36.9799 81.8008 37.0438 81.8315 37.1097 81.8632C39.193 82.8781 41.0982 84.2759 42.7659 85.8684C42.8326 85.9317 42.8992 85.995 42.9679 86.0603C43.9247 86.9742 44.8061 87.9034 45.59 88.9671C45.6766 89.0821 45.7631 89.1972 45.8497 89.3122C46.4586 90.1308 47.0035 90.9797 47.5064 91.8659C47.5502 91.943 47.594 92.0202 47.6392 92.0997C49.3573 95.1585 50.4761 98.5728 50.8348 102.062C50.846 102.158 50.8572 102.254 50.8687 102.354C51.5068 108.814 49.3882 115.336 45.2874 120.354C44.9635 120.732 44.6209 121.092 44.2788 121.453C44.1563 121.592 44.0344 121.732 43.9132 121.872C43.3105 122.556 42.663 123.152 41.9476 123.719C41.7579 123.871 41.5709 124.027 41.3873 124.186C36.2721 128.605 29.5215 130.113 22.9026 129.681C18.0002 129.304 13.3781 127.317 9.58264 124.252C9.52763 124.208 9.47261 124.164 9.41593 124.118C8.03275 122.997 6.73842 121.76 5.64906 120.354C5.54686 120.227 5.44454 120.099 5.34214 119.972C3.54818 117.722 2.13751 115.175 1.21118 112.457C1.1834 112.376 1.15563 112.295 1.12701 112.212C0.457414 110.225 -0.00533473 108.135 -0.0231884 106.035C-0.0241763 105.939 -0.0251625 105.843 -0.0261803 105.744C-0.0427662 103.715 -0.0449369 101.752 0.404289 99.7626C0.42644 99.659 0.448592 99.5554 0.471415 99.4487C0.944256 97.2542 1.63139 95.1828 2.62323 93.1653C2.66263 93.0852 2.70202 93.005 2.74261 92.9225C3.88437 90.6297 5.37726 88.6071 7.16198 86.768C7.23299 86.6943 7.23299 86.6943 7.30544 86.6192C7.9566 85.9467 8.64094 85.3431 9.38092 84.7688C9.48142 84.6887 9.58192 84.6085 9.68547 84.526C10.5164 83.8696 11.392 83.3057 12.3059 82.7697C12.3757 82.7284 12.4455 82.6872 12.5174 82.6447C15.216 81.0635 18.1182 80.0822 21.1817 79.4711C21.2689 79.453 21.3562 79.4349 21.4461 79.4163C24.1228 78.8833 27.2863 78.9328 29.9566 79.4711ZM12.1987 91.9846C11.5625 92.6959 11.0214 93.4746 10.4904 94.2649C10.4489 94.3262 10.4074 94.3875 10.3647 94.4506C7.75414 98.3612 6.81336 103.55 7.68295 108.147C7.74005 108.419 7.80215 108.689 7.868 108.959C7.88908 109.045 7.91016 109.132 7.93188 109.221C8.39035 111.022 9.1492 112.712 10.1878 114.256C10.2542 114.359 10.3207 114.461 10.3891 114.567C11.0728 115.609 11.8556 116.546 12.7093 117.455C12.7723 117.523 12.8352 117.591 12.9 117.661C15.9945 120.869 20.8078 122.48 25.2034 122.582C30.1706 122.63 34.5415 120.808 38.1263 117.455C38.2016 117.386 38.2769 117.317 38.3544 117.245C41.5311 114.223 43.2917 109.568 43.3998 105.261C43.4295 103.711 43.3881 102.185 43.0685 100.662C43.0517 100.581 43.0349 100.499 43.0177 100.415C42.0645 95.9253 39.383 91.8171 35.4893 89.2931C32.8057 87.5955 29.6384 86.3792 26.4197 86.3443C26.3443 86.3434 26.2689 86.3424 26.1912 86.3414C20.7624 86.2849 15.9576 88.057 12.1987 91.9846Z" fill="#8B8B8B"/>
<path d="M231.982 77.3711C232.266 77.7173 232.466 78.0979 232.668 78.4945C232.723 78.6007 232.723 78.6007 232.779 78.7091C232.858 78.8609 232.936 79.0127 233.014 79.1646C233.178 79.4845 233.343 79.8039 233.508 80.1233C233.59 80.2831 233.673 80.4429 233.755 80.6028C234.075 81.2224 234.398 81.84 234.724 82.4565C236.531 85.8826 238.335 89.3147 240.058 92.7833C240.25 93.1684 240.446 93.5511 240.65 93.9304C241.208 94.969 241.746 96.0164 242.276 97.0691C242.312 97.1411 242.348 97.2132 242.386 97.2874C242.688 97.8881 242.99 98.4891 243.292 99.0901C243.554 99.6119 243.816 100.134 244.079 100.655C244.115 100.728 244.152 100.8 244.189 100.875C244.579 101.649 244.972 102.422 245.384 103.185C245.874 104.095 246.337 105.018 246.802 105.94C246.843 106.021 246.884 106.102 246.926 106.186C247.266 106.862 247.606 107.539 247.946 108.215C248.241 108.802 248.536 109.389 248.832 109.976C248.893 110.097 248.893 110.097 248.955 110.221C249.424 111.153 249.898 112.081 250.393 113C251.009 114.147 251.582 115.316 252.165 116.48C252.744 117.632 253.326 118.782 253.934 119.919C254.258 120.525 254.571 121.137 254.877 121.753C255.229 122.454 255.585 123.153 255.955 123.845C256.134 124.181 256.312 124.516 256.491 124.851C256.524 124.914 256.557 124.976 256.592 125.04C256.826 125.48 257.06 125.921 257.292 126.362C257.371 126.512 257.451 126.662 257.53 126.811C257.643 127.022 257.755 127.234 257.866 127.446C257.9 127.51 257.935 127.573 257.97 127.639C258.169 128.023 258.206 128.198 258.206 128.65C255.476 128.65 252.747 128.65 249.935 128.65C248.765 126.446 248.765 126.446 248.212 125.352C248.172 125.273 248.132 125.193 248.091 125.112C248.05 125.031 248.009 124.95 247.967 124.866C247.881 124.695 247.794 124.523 247.707 124.352C247.528 123.997 247.349 123.642 247.17 123.287C246.94 122.832 246.71 122.376 246.479 121.921C246.301 121.569 246.123 121.217 245.945 120.865C245.861 120.697 245.776 120.529 245.69 120.361C245.572 120.128 245.455 119.895 245.338 119.662C245.303 119.593 245.267 119.524 245.231 119.452C244.993 118.977 244.993 118.977 244.993 118.754C244.883 118.754 244.773 118.754 244.66 118.754C241.968 118.756 239.277 118.758 236.586 118.759C235.284 118.759 233.982 118.76 232.681 118.761C231.544 118.762 230.408 118.763 229.272 118.763C228.672 118.763 228.072 118.764 227.472 118.764C224.737 118.768 222.006 118.748 219.273 118.654C219.242 118.748 219.211 118.843 219.179 118.94C219.087 119.208 218.986 119.439 218.851 119.687C218.807 119.77 218.763 119.853 218.717 119.939C218.668 120.029 218.619 120.12 218.568 120.213C218.023 121.237 217.495 122.268 216.974 123.304C216.936 123.381 216.897 123.457 216.858 123.536C216.58 124.086 216.304 124.637 216.027 125.189C215.746 125.748 215.465 126.306 215.184 126.865C215.072 127.087 214.961 127.309 214.85 127.531C214.782 127.665 214.715 127.799 214.647 127.933C214.559 128.108 214.559 128.108 214.469 128.287C214.331 128.55 214.331 128.55 214.23 128.65C213.966 128.659 213.705 128.662 213.441 128.661C213.358 128.661 213.276 128.661 213.19 128.661C212.916 128.661 212.641 128.66 212.367 128.659C212.177 128.659 211.987 128.659 211.798 128.659C211.297 128.659 210.796 128.658 210.296 128.656C209.785 128.655 209.275 128.655 208.765 128.655C207.762 128.653 206.76 128.652 205.758 128.65C205.874 128.286 206 127.945 206.176 127.605C206.219 127.523 206.261 127.44 206.305 127.355C206.351 127.267 206.397 127.179 206.444 127.088C206.492 126.995 206.541 126.901 206.591 126.805C206.745 126.505 206.901 126.206 207.056 125.907C207.157 125.713 207.258 125.518 207.358 125.323C207.864 124.345 208.375 123.369 208.889 122.395C209.481 121.272 210.063 120.145 210.643 119.016C210.856 118.603 211.068 118.191 211.28 117.778C211.333 117.675 211.386 117.572 211.441 117.466C211.784 116.799 212.129 116.132 212.474 115.466C213.399 113.681 214.319 111.894 215.218 110.096C215.58 109.373 215.95 108.655 216.331 107.942C216.893 106.89 217.428 105.826 217.962 104.76C218.149 104.387 218.336 104.014 218.523 103.641C218.563 103.561 218.603 103.48 218.645 103.398C218.937 102.816 219.24 102.242 219.547 101.668C220.031 100.761 220.498 99.8455 220.959 98.9266C221.097 98.6529 221.234 98.3793 221.372 98.1058C221.664 97.525 221.957 96.9441 222.249 96.3631C222.588 95.6883 222.927 95.0136 223.267 94.339C223.401 94.0735 223.534 93.8078 223.667 93.5421C224.075 92.7312 224.489 91.9242 224.917 91.1235C225.413 90.1961 225.889 89.2594 226.361 88.3199C226.508 88.026 226.656 87.7323 226.804 87.4386C227.118 86.8151 227.432 86.1914 227.746 85.5677C228.11 84.8433 228.474 84.119 228.839 83.3949C228.983 83.1094 229.126 82.8238 229.27 82.5381C229.855 81.3738 230.458 80.2193 231.074 79.0704C231.173 78.8847 231.272 78.699 231.371 78.5132C231.444 78.3761 231.518 78.2391 231.591 78.102C231.63 78.0296 231.668 77.9571 231.708 77.8824C231.799 77.712 231.891 77.5415 231.982 77.3711ZM231.982 93.7642C231.199 95.2178 230.452 96.6871 229.712 98.1624C229.091 99.4007 228.47 100.637 227.815 101.859C227.303 102.817 226.82 103.789 226.333 104.76C225.68 106.064 225.017 107.361 224.328 108.647C224.048 109.17 223.773 109.695 223.497 110.22C223.439 110.33 223.381 110.439 223.321 110.553C223.266 110.656 223.212 110.76 223.156 110.867C223.083 111.005 223.083 111.005 223.009 111.146C222.897 111.333 222.897 111.333 222.904 111.457C223.949 111.547 224.984 111.571 226.032 111.568C226.199 111.568 226.366 111.568 226.533 111.568C226.983 111.568 227.432 111.568 227.881 111.567C228.352 111.566 228.823 111.566 229.294 111.566C230.185 111.566 231.075 111.565 231.965 111.564C232.979 111.563 233.993 111.562 235.007 111.562C237.092 111.561 239.176 111.559 241.261 111.557C241.208 111.451 241.155 111.346 241.1 111.237C240.739 110.522 240.378 109.806 240.017 109.09C239.645 108.352 239.273 107.613 238.901 106.875C238.678 106.432 238.456 105.99 238.233 105.547C238.014 105.113 237.796 104.679 237.577 104.245C237.495 104.082 237.413 103.919 237.331 103.757C236.81 102.721 236.276 101.693 235.73 100.671C235.463 100.172 235.209 99.6681 234.957 99.162C234.043 97.3392 233.064 95.5519 232.083 93.7642C232.049 93.7642 232.016 93.7642 231.982 93.7642Z" fill="#8B8B8B"/>
<path d="M118.816 80.168C128.669 80.168 138.521 80.168 148.671 80.168C148.671 82.543 148.671 84.918 148.671 87.365C141.315 87.365 133.96 87.365 126.381 87.365C126.381 91.8181 126.381 96.2712 126.381 100.859C133.504 100.859 140.627 100.859 147.965 100.859C147.965 103.234 147.965 105.609 147.965 108.056C140.842 108.056 133.72 108.056 126.381 108.056C126.381 112.476 126.381 116.897 126.381 121.451C128.414 121.449 128.414 121.449 130.489 121.447C131.353 121.447 132.217 121.446 133.081 121.446C134.45 121.445 135.818 121.445 137.187 121.443C138.184 121.442 139.181 121.442 140.178 121.441C140.705 121.441 141.231 121.441 141.758 121.44C142.256 121.439 142.755 121.439 143.253 121.439C143.434 121.439 143.614 121.439 143.794 121.439C145.423 121.435 147.041 121.497 148.671 121.551C148.671 123.893 148.671 126.235 148.671 128.648C138.819 128.648 128.967 128.648 118.816 128.648C118.816 112.649 118.816 96.6511 118.816 80.168Z" fill="#8B8B8B"/>
</g>
<defs>
<clipPath id="clip0_203_1982">
<rect width="258.204" height="136.043" fill="white"/>
</clipPath>
</defs>
</svg>
