<svg width="217" height="123" viewBox="0 0 217 123" fill="none" xmlns="http://www.w3.org/2000/svg">
<g clip-path="url(#clip0_203_1924)">
<path d="M110.944 1.78185C111.757 2.48972 112.245 3.33233 112.397 4.40707C112.465 5.5395 112.165 6.57221 111.422 7.44231C110.794 8.10255 110.024 8.50639 109.126 8.64877C109.136 8.70175 109.136 8.70175 109.146 8.7558C109.25 9.33591 109.306 9.92011 109.365 10.506C109.377 10.6259 109.39 10.7458 109.402 10.8657C109.436 11.1943 109.469 11.5229 109.503 11.8515C109.539 12.2067 109.575 12.5619 109.612 12.9171C109.675 13.534 109.738 14.1508 109.801 14.7677C109.868 15.4194 109.934 16.0711 110.001 16.7227C110.005 16.7635 110.009 16.8043 110.014 16.8463C110.035 17.0537 110.056 17.261 110.077 17.4683C110.228 18.94 110.379 20.4118 110.529 21.8835C110.673 23.2939 110.818 24.7042 110.962 26.1146C110.967 26.1575 110.971 26.2005 110.975 26.2447C111.028 26.7629 111.082 27.2811 111.135 27.7993C111.218 28.6134 111.301 29.4275 111.385 30.2416C111.391 30.3045 111.391 30.3045 111.398 30.3686C111.522 31.5798 111.646 32.7911 111.769 34.0023C111.836 34.6498 111.902 35.2974 111.968 35.945C111.976 36.0187 111.983 36.0924 111.991 36.1683C112.37 39.8712 112.75 43.5739 113.13 47.2766C113.228 47.0879 113.282 46.9133 113.331 46.7054C113.348 46.6337 113.364 46.562 113.382 46.4881C113.4 46.4077 113.419 46.3274 113.437 46.2471C113.457 46.161 113.478 46.0749 113.498 45.9888C113.542 45.7991 113.586 45.6094 113.63 45.4196C113.703 45.1048 113.777 44.7901 113.85 44.4753C113.932 44.1239 114.014 43.7724 114.096 43.4208C114.324 42.4412 114.554 41.4618 114.784 40.4826C114.793 40.4444 114.802 40.4063 114.811 40.3671C114.894 40.0131 114.977 39.6591 115.06 39.3051C115.253 38.4829 115.446 37.6606 115.639 36.8384C115.698 36.5854 115.758 36.3325 115.817 36.0796C116.066 35.0203 116.314 33.961 116.563 32.9017C116.738 32.1553 116.913 31.4089 117.088 30.6625C117.117 30.5393 117.146 30.4161 117.175 30.2929C117.942 27.0231 117.942 27.0231 118.295 25.5208C118.307 25.47 118.319 25.4192 118.332 25.3669C118.435 24.9255 118.539 24.4841 118.643 24.0427C118.956 22.7153 119.267 21.3875 119.578 20.0595C119.617 19.8914 119.657 19.7233 119.696 19.5553C119.745 19.344 119.795 19.1327 119.844 18.9214C119.854 18.8794 119.864 18.8374 119.874 18.7941C119.981 18.3363 120.088 17.8785 120.195 17.4207C120.304 16.9543 120.413 16.4878 120.522 16.0214C120.531 15.9844 120.54 15.9475 120.549 15.9095C120.833 14.6942 121.122 13.4803 121.42 12.2684C121.386 12.2571 121.351 12.2458 121.315 12.2341C121.27 12.2191 121.224 12.2041 121.177 12.1886C121.132 12.1738 121.087 12.159 121.041 12.1437C120.226 11.8571 119.569 11.2053 119.165 10.4586C119.142 10.4184 119.12 10.3782 119.097 10.3368C118.647 9.48673 118.575 8.44731 118.801 7.51765C119.117 6.50336 119.741 5.68086 120.68 5.18441C120.738 5.15481 120.738 5.15481 120.796 5.12462C120.832 5.1062 120.868 5.08779 120.904 5.06881C121.423 4.81546 121.935 4.7155 122.509 4.72166C122.566 4.72209 122.623 4.72251 122.681 4.72296C123.745 4.74652 124.656 5.19825 125.393 5.96412C126.09 6.76823 126.383 7.70471 126.383 8.76188C126.304 9.84185 125.841 10.8149 125.03 11.5331C124.419 12.0209 123.744 12.2968 122.976 12.4173C122.929 12.4248 122.882 12.4324 122.834 12.4401C122.72 12.4585 122.606 12.4766 122.492 12.4946C122.304 15.8875 122.115 19.2804 121.927 22.6733C121.925 22.7235 121.922 22.7736 121.919 22.8254C121.858 23.916 121.798 25.0067 121.738 26.0974C121.708 26.6323 121.678 27.1671 121.649 27.702C121.646 27.7552 121.643 27.8084 121.64 27.8633C121.544 29.5894 121.448 31.3156 121.352 33.0417C121.254 34.8151 121.156 36.5885 121.057 38.3619C121.044 38.6122 121.03 38.8625 121.016 39.1128C121.013 39.162 121.01 39.2113 121.008 39.262C120.964 40.0561 120.919 40.8501 120.875 41.6441C120.831 42.4417 120.787 43.2394 120.743 44.037C120.716 44.5113 120.69 44.9856 120.664 45.4599C120.644 45.8134 120.625 46.167 120.605 46.5206C120.597 46.6641 120.589 46.8075 120.581 46.951C120.57 47.1452 120.56 47.3395 120.549 47.5337C120.546 47.5901 120.543 47.6465 120.539 47.7046C120.536 47.7563 120.534 47.8081 120.531 47.8613C120.527 47.928 120.527 47.928 120.523 47.9959C120.518 48.1333 120.517 48.2702 120.518 48.4077C121.077 47.2284 121.633 46.0484 122.179 44.8633C122.329 44.5388 122.479 44.2146 122.629 43.8903C122.675 43.7925 122.675 43.7925 122.721 43.6928C123.092 42.8905 123.466 42.089 123.839 41.2875C123.955 41.0381 124.071 40.7887 124.187 40.5393C124.212 40.4866 124.212 40.4866 124.237 40.4328C124.504 39.859 124.77 39.2849 125.036 38.7105C125.275 38.193 125.516 37.6759 125.756 37.1589C125.994 36.6483 126.231 36.1373 126.468 35.626C126.72 35.0814 126.972 34.537 127.226 33.993C127.242 33.9578 127.258 33.9226 127.275 33.8864C127.408 33.601 127.541 33.3157 127.674 33.0303C127.79 32.7809 127.906 32.5315 128.022 32.2821C128.047 32.2294 128.047 32.2294 128.072 32.1756C128.339 31.6019 128.605 31.0277 128.871 30.4533C129.11 29.9358 129.35 29.4187 129.591 28.9018C129.86 28.3254 130.127 27.7485 130.394 27.1715C130.594 26.7399 130.794 26.3087 130.995 25.8777C131.314 25.1915 131.633 24.505 131.951 23.8181C131.998 23.7171 132.045 23.6162 132.092 23.5153C132.36 22.9372 132.623 22.3579 132.869 21.7698C132.831 21.749 132.794 21.7282 132.755 21.7067C131.808 21.1744 131.193 20.3734 130.874 19.3379C130.628 18.3284 130.758 17.3055 131.247 16.3883C131.819 15.4606 132.688 14.8031 133.746 14.5447C134.817 14.336 135.833 14.5188 136.76 15.0962C136.965 15.2515 137.145 15.4208 137.324 15.6052C137.368 15.6482 137.412 15.6912 137.457 15.7355C138.171 16.4703 138.475 17.4561 138.464 18.4683C138.409 19.3291 138.133 20.075 137.606 20.7518C137.577 20.7906 137.548 20.8295 137.519 20.8695C136.948 21.5874 136.02 22.0447 135.124 22.1657C134.672 22.1933 134.216 22.1969 133.771 22.1091C133.758 22.1822 133.745 22.2553 133.732 22.3306C133.642 22.7801 133.505 23.2167 133.374 23.6556C133.345 23.7535 133.316 23.8515 133.287 23.9494C133.225 24.1592 133.163 24.369 133.101 24.5787C132.95 25.0862 132.8 25.594 132.65 26.1017C132.598 26.2767 132.546 26.4516 132.495 26.6265C132.18 27.6888 131.87 28.752 131.56 29.8155C131.491 30.0526 131.421 30.2898 131.352 30.527C131.338 30.5744 131.325 30.6219 131.31 30.6708C131.282 30.7671 131.254 30.8635 131.226 30.9598C131.198 31.0565 131.17 31.1532 131.142 31.2499C130.789 32.4603 130.435 33.6702 130.081 34.8802C130.065 34.9347 130.049 34.9891 130.032 35.0452C129.53 36.7608 129.027 38.4762 128.524 40.1914C128.058 41.7812 127.592 43.3712 127.127 44.9613C126.68 46.4872 126.234 48.0129 125.786 49.5384C125.481 50.5771 125.177 51.6158 124.873 52.6547C124.856 52.7116 124.84 52.7685 124.823 52.8271C124.673 53.3383 124.523 53.8495 124.374 54.3607C124.343 54.4667 124.312 54.5728 124.281 54.6788C124.266 54.7309 124.251 54.783 124.235 54.8367C124.114 55.2505 123.993 55.6642 123.871 56.0779C123.775 56.4065 123.679 56.7352 123.584 57.064C123.518 57.2907 123.451 57.5173 123.385 57.7439C123.354 57.8511 123.323 57.9582 123.292 58.0654C122.865 59.5397 122.317 60.7387 121.251 61.868C121.184 61.9411 121.184 61.9411 121.115 62.0156C119.622 63.5807 117.573 64.5292 115.555 65.2048C115.513 65.2196 115.471 65.2343 115.427 65.2495C114.527 65.561 113.581 65.7598 112.646 65.936C112.537 65.9567 112.427 65.9779 112.318 65.9992C111.094 66.2213 109.849 66.2445 108.608 66.2405C108.541 66.2404 108.473 66.2403 108.403 66.2402C107.356 66.2375 106.329 66.2059 105.291 66.0532C105.224 66.0435 105.156 66.0338 105.086 66.0238C103.151 65.7383 101.246 65.2129 99.4825 64.3565C99.4045 64.3196 99.3264 64.2827 99.2484 64.2458C98.133 63.7109 97.1329 63.0313 96.2391 62.1746C96.183 62.1209 96.1266 62.0675 96.07 62.0143C94.8857 60.9023 94.299 59.5692 93.8549 58.0238C93.8292 57.9352 93.8035 57.8467 93.7777 57.7582C93.7225 57.5681 93.6674 57.3779 93.6125 57.1877C93.5238 56.8806 93.4347 56.5737 93.3455 56.2667C93.251 55.9413 93.1565 55.6158 93.0621 55.2903C92.7483 54.2085 92.4321 53.1275 92.1154 52.0466C92.0199 51.7205 91.9244 51.3944 91.829 51.0682C91.8131 51.0139 91.7972 50.9596 91.7808 50.9036C91.7486 50.7937 91.7164 50.6837 91.6842 50.5737C91.6359 50.4086 91.5875 50.2434 91.5392 50.0782C91.3299 49.3634 91.1207 48.6485 90.9116 47.9337C90.2533 45.6836 89.5945 43.4336 88.9345 41.184C88.4517 39.5386 87.9699 37.8929 87.4884 36.2471C87.0803 34.8524 86.672 33.4577 86.2629 32.0632C85.8024 30.4939 85.3426 28.9243 84.8832 27.3547C84.8585 27.2704 84.8585 27.2704 84.8334 27.1844C84.3384 25.4932 83.8442 23.8016 83.3535 22.1091C83.2633 22.1227 83.2633 22.1227 83.1713 22.1366C82.0639 22.2882 81.0006 22.0902 80.0931 21.4057C80.0136 21.3395 79.9348 21.2724 79.8569 21.2042C79.8236 21.1761 79.7902 21.1479 79.7558 21.1189C79.1258 20.5435 78.6705 19.6319 78.6084 18.7775C78.5555 17.615 78.8022 16.5702 79.5961 15.69C80.3582 14.8875 81.3449 14.4827 82.4441 14.4493C83.4651 14.4583 84.4017 14.8493 85.1266 15.5692C85.2969 15.7452 85.4632 15.9173 85.6093 16.1142C85.6333 16.1461 85.6573 16.178 85.682 16.2109C86.2457 17.0329 86.3875 18.0844 86.2191 19.048C86.0869 19.7332 85.8165 20.2621 85.3837 20.8083C85.3476 20.8562 85.3114 20.904 85.2742 20.9533C85.1539 21.0961 85.0298 21.2057 84.8832 21.3209C84.8368 21.3577 84.7904 21.3945 84.7426 21.4324C84.5841 21.5511 84.4207 21.6603 84.2558 21.7698C84.2844 21.83 84.313 21.8903 84.3425 21.9523C84.891 23.107 85.4367 24.2627 85.9718 25.4237C86.131 25.7684 86.2914 26.1126 86.4517 26.4569C86.485 26.5285 86.5184 26.6001 86.5517 26.6718C86.7136 27.0196 86.8756 27.3673 87.0377 27.715C87.1008 27.8506 87.164 27.9862 87.2271 28.1217C87.243 28.1558 87.2588 28.1898 87.2752 28.2249C87.4828 28.6708 87.6896 29.1171 87.8957 29.5637C87.929 29.6358 87.929 29.6358 87.9629 29.7093C88.0084 29.8078 88.0539 29.9064 88.0993 30.005C88.4767 30.8228 88.8562 31.6396 89.2395 32.4546C89.5507 33.1163 89.8589 33.7794 90.1656 34.4432C90.3556 34.8543 90.5466 35.2649 90.7377 35.6755C90.7711 35.7471 90.8044 35.8187 90.8377 35.8903C90.9996 36.2381 91.1617 36.5859 91.3237 36.9337C91.3869 37.0692 91.45 37.2048 91.5132 37.3404C91.529 37.3744 91.5449 37.4085 91.5612 37.4436C91.7689 37.8895 91.9757 38.3357 92.1818 38.7823C92.2039 38.8304 92.2261 38.8784 92.2489 38.9279C92.2944 39.0265 92.3399 39.125 92.3854 39.2236C92.7628 40.0414 93.1422 40.8582 93.5256 41.6732C93.8368 42.3349 94.1449 42.998 94.4517 43.6618C94.6743 44.1436 94.8983 44.6248 95.1224 45.1059C95.1554 45.1767 95.1884 45.2475 95.2214 45.3183C95.2378 45.3535 95.2542 45.3887 95.2711 45.4249C95.374 45.646 95.4766 45.8671 95.579 46.0884C95.6486 46.2387 95.7182 46.3889 95.7879 46.5392C95.8358 46.6427 95.8836 46.7462 95.9314 46.8497C96.0987 47.2105 96.271 47.5681 96.449 47.9237C96.4697 47.965 96.4903 48.0064 96.5116 48.049C96.562 48.1497 96.6124 48.2504 96.6628 48.3511C96.6611 48.3203 96.6593 48.2895 96.6576 48.2577C96.4711 44.9022 96.2846 41.5466 96.0982 38.191C96.0955 38.1409 96.0927 38.0908 96.0898 38.0392C96.0293 36.9504 95.9689 35.8616 95.9084 34.7728C95.8788 34.2389 95.8491 33.7049 95.8195 33.171C95.815 33.0913 95.815 33.0913 95.8105 33.01C95.7148 31.287 95.6191 29.564 95.5233 27.841C95.4249 26.0707 95.3266 24.3005 95.2283 22.5303C95.2144 22.2804 95.2006 22.0305 95.1867 21.7806C95.1826 21.7069 95.1826 21.7069 95.1784 21.6316C95.1344 20.8391 95.0904 20.0465 95.0463 19.254C95.002 18.4577 94.9578 17.6615 94.9136 16.8652C94.8874 16.3918 94.8611 15.9184 94.8347 15.4451C94.815 15.0921 94.7954 14.7391 94.7759 14.386C94.768 14.2429 94.76 14.0997 94.752 13.9565C94.7412 13.7626 94.7305 13.5686 94.7198 13.3747C94.7166 13.3185 94.7134 13.2623 94.7102 13.2044C94.6962 12.9486 94.6852 12.6944 94.6889 12.438C94.6465 12.4372 94.604 12.4364 94.5603 12.4356C93.5123 12.3884 92.5309 11.9801 91.8128 11.1938C91.0072 10.1707 90.7349 9.11072 90.8765 7.8223C91.024 7.0512 91.4207 6.36047 91.982 5.82097C92.0193 5.78174 92.0567 5.74252 92.0952 5.70211C92.7934 5.01252 93.7325 4.73422 94.6889 4.72519C95.8192 4.73493 96.6869 5.14405 97.5061 5.92613C98.1116 6.56622 98.4656 7.43398 98.5238 8.30943C98.5282 8.37035 98.5282 8.37035 98.5326 8.43249C98.5735 9.47688 98.1628 10.4101 97.5052 11.1938C97.0336 11.704 96.4671 12.0346 95.8168 12.2684C95.8573 12.6866 95.9529 13.0885 96.0497 13.4967C96.0686 13.5774 96.0876 13.658 96.1065 13.7387C96.1482 13.9165 96.19 14.0942 96.232 14.2719C96.302 14.5684 96.3717 14.865 96.4413 15.1615C96.5341 15.5562 96.6269 15.9509 96.7198 16.3455C96.9227 17.2075 97.125 18.0696 97.3272 18.9318C97.4001 19.2426 97.473 19.5535 97.5459 19.8644C97.5645 19.9439 97.5832 20.0234 97.6018 20.103C97.8153 21.0134 98.029 21.9237 98.2426 22.8341C98.3324 23.2167 98.4222 23.5993 98.512 23.9819C98.5219 24.024 98.5318 24.066 98.5419 24.1094C98.7625 25.0491 98.983 25.9888 99.2034 26.9285C99.2127 26.968 99.222 27.0075 99.2315 27.0482C99.3156 27.4066 99.3997 27.765 99.4838 28.1234C99.6054 28.6417 99.727 29.16 99.8486 29.6783C99.9331 30.0387 100.018 30.399 100.102 30.7593C100.112 30.799 100.121 30.8386 100.13 30.8794C100.395 32.0089 100.66 33.1384 100.925 34.268C101.106 35.0376 101.286 35.8072 101.467 36.5769C101.476 36.6163 101.485 36.6558 101.495 36.6965C101.942 38.5998 102.388 40.5032 102.836 42.4063C102.845 42.4446 102.854 42.4828 102.863 42.5222C103.127 43.6477 103.392 44.7731 103.657 45.8985C103.69 46.0382 103.722 46.1779 103.755 46.3177C103.835 46.6562 103.915 46.9946 103.994 47.3331C104.451 42.9789 104.903 38.6243 105.349 34.269C105.402 33.7488 105.456 33.2286 105.509 32.7084C105.515 32.6515 105.515 32.6515 105.521 32.5934C105.541 32.4004 105.56 32.2074 105.58 32.0145C105.718 30.6717 105.855 29.329 105.993 27.9863C106.125 26.6961 106.257 25.4058 106.389 24.1156C106.394 24.0756 106.398 24.0355 106.402 23.9942C106.488 23.1537 106.574 22.3132 106.66 21.4727C106.696 21.1208 106.732 20.7689 106.768 20.417C106.78 20.301 106.792 20.1851 106.804 20.0692C106.925 18.8883 107.046 17.7075 107.167 16.5266C107.279 15.4342 107.391 14.3419 107.503 13.2495C107.561 12.6848 107.619 12.1201 107.676 11.5553C107.713 11.194 107.75 10.8327 107.787 10.4714C107.801 10.334 107.816 10.1966 107.83 10.0592C107.848 9.87963 107.866 9.70005 107.885 9.52048C107.89 9.47023 107.895 9.41998 107.9 9.36821C107.925 9.12661 107.955 8.88796 107.998 8.64877C107.942 8.63703 107.885 8.6253 107.827 8.6132C106.754 8.37705 105.953 7.84688 105.33 6.93441C104.771 6.03749 104.59 5.04502 104.794 4.00057C105.036 3.00486 105.579 2.1666 106.437 1.5934C107.838 0.752671 109.634 0.697474 110.944 1.78185ZM99.9901 57.0042C99.9488 57.0185 99.9074 57.0327 99.8648 57.0474C99.0075 57.3451 98.1712 57.6815 97.4523 58.2484C97.4112 58.2804 97.3702 58.3123 97.3278 58.3452C96.9171 58.683 96.6892 59.031 96.6112 59.5638C96.5958 60.0566 96.8787 60.4445 97.2021 60.7899C98.9117 62.4479 101.946 62.8432 104.188 63.1229C104.258 63.1316 104.327 63.1404 104.399 63.1494C105.763 63.3101 107.126 63.36 108.499 63.3562C108.58 63.356 108.661 63.3559 108.742 63.3558C110.003 63.3532 111.256 63.3252 112.51 63.1688C112.578 63.1604 112.578 63.1604 112.647 63.1518C116.743 62.6814 116.743 62.6814 120.09 60.5246C120.324 60.1926 120.45 59.8779 120.43 59.4666C120.328 58.8718 119.907 58.4637 119.441 58.1194C117.023 56.4556 113.731 56.1391 110.874 55.9296C110.82 55.9256 110.765 55.9215 110.709 55.9173C107.239 55.673 103.291 55.8387 99.9901 57.0042Z" fill="#8B8B8B"/>
<path d="M1.01904 83.0194C3.739 83.0166 6.45895 83.0138 9.17891 83.0122C9.21921 83.0122 9.25951 83.0122 9.30104 83.0122C10.1771 83.0117 11.0531 83.0112 11.9292 83.0108C12.3589 83.0106 12.7885 83.0103 13.2182 83.0101C13.2609 83.0101 13.3037 83.0101 13.3478 83.01C14.7317 83.0093 16.1157 83.008 17.4997 83.0065C18.9228 83.0049 20.3459 83.0038 21.769 83.0035C21.9703 83.0034 22.1716 83.0034 22.373 83.0033C22.4126 83.0033 22.4522 83.0033 22.4931 83.0033C23.129 83.0031 23.765 83.0023 24.4009 83.0013C25.0414 83.0003 25.6819 82.9999 26.3224 83.0002C26.6689 83.0003 27.0155 83.0001 27.362 82.9992C27.6801 82.9984 27.9981 82.9983 28.3161 82.9989C28.4305 82.999 28.5448 82.9988 28.6591 82.9982C29.6209 82.994 30.5902 83.0586 31.5149 83.3446C31.5634 83.3592 31.6119 83.3738 31.662 83.3888C33.215 83.8677 34.5518 84.7 35.7022 85.8472C35.7426 85.8874 35.7426 85.8874 35.7839 85.9284C37.4764 87.6357 38.3592 90.053 38.3739 92.436C38.3574 95.1147 37.2756 97.5217 35.3856 99.3973C34.2332 100.483 32.8022 101.279 31.2613 101.651C31.1031 101.691 30.9501 101.743 30.7958 101.796C30.8531 101.815 30.8531 101.815 30.9116 101.834C32.4168 102.329 33.7084 102.889 34.8563 104.002C34.9044 104.047 34.9525 104.092 35.0021 104.139C37.3549 106.409 38.1958 109.883 39.2125 112.889C39.3972 113.434 39.5841 113.979 39.7748 114.523C39.7943 114.579 39.8137 114.634 39.8338 114.692C39.9272 114.958 40.021 115.225 40.1153 115.491C40.1491 115.588 40.1829 115.684 40.2167 115.78C40.2319 115.823 40.2472 115.866 40.2629 115.909C40.365 116.202 40.4278 116.476 40.4958 116.783C41.873 116.783 43.2502 116.783 44.6691 116.783C44.6691 117.717 44.6691 118.65 44.6691 119.611C40.7237 119.611 36.7782 119.611 32.7133 119.611C32.2621 117.543 32.2621 117.543 32.0436 116.515C32.0106 116.36 31.9777 116.205 31.9446 116.05C31.9246 115.956 31.9046 115.862 31.8846 115.767C31.8441 115.577 31.802 115.388 31.7545 115.2C31.7349 115.119 31.7153 115.038 31.6959 114.956C31.3342 113.455 30.9516 111.969 30.4574 110.506C30.4374 110.446 30.4174 110.386 30.3967 110.325C29.9938 109.133 29.4841 107.985 28.8814 106.882C28.8291 106.786 28.7782 106.689 28.7275 106.592C27.7281 104.693 26.2081 103.388 24.1729 102.75C23.6749 102.6 23.1735 102.465 22.6678 102.344C22.6149 102.331 22.5621 102.318 22.5076 102.304C19.985 101.727 17.1168 101.989 14.6667 101.966C14.6667 106.856 14.6667 111.745 14.6667 116.783C16.3975 116.783 18.1283 116.783 19.9115 116.783C19.9115 117.717 19.9115 118.65 19.9115 119.611C13.6398 119.611 7.36803 119.611 0.90625 119.611C0.90625 118.678 0.90625 117.745 0.90625 116.783C2.63702 116.783 4.3678 116.783 6.15102 116.783C6.15102 106.556 6.15102 96.3282 6.15102 85.7907C4.45747 85.7907 2.76391 85.7907 1.01904 85.7907C1.01904 84.8762 1.01904 83.9617 1.01904 83.0194ZM14.7231 85.7907C14.7231 90.1766 14.7231 94.5625 14.7231 99.0814C16.2631 99.086 17.8032 99.0907 19.3898 99.0955C19.8742 99.0975 20.3586 99.0996 20.8576 99.1017C21.2958 99.1025 21.2958 99.1025 21.734 99.1029C21.9276 99.1032 22.1212 99.104 22.3147 99.1052C23.8356 99.1279 23.8356 99.1279 25.3255 98.8551C25.3913 98.8365 25.3913 98.8365 25.4584 98.8175C26.4597 98.532 27.3506 98.0586 28.1452 97.3847C28.217 97.3255 28.217 97.3255 28.2902 97.2651C28.4488 97.1328 28.4488 97.1328 28.5964 96.9888C28.5964 96.9514 28.5964 96.9141 28.5964 96.8757C28.6336 96.8757 28.6708 96.8757 28.7092 96.8757C28.8015 96.7705 28.8862 96.6657 28.97 96.554C28.9951 96.5206 29.0202 96.4872 29.0461 96.4529C30.1599 94.9509 30.5651 93.2123 30.3054 91.3517C30.024 89.6824 29.1033 88.1785 27.7333 87.1798C25.9363 85.9102 23.9736 85.7627 21.843 85.7735C21.6165 85.7745 21.3901 85.7745 21.1637 85.7746C20.5054 85.7755 19.8472 85.7779 19.1889 85.7801C16.9784 85.7853 16.9784 85.7853 14.7231 85.7907Z" fill="#8B8B8B"/>
<path d="M78.2207 85.5102C78.2535 85.5345 78.2864 85.5589 78.3203 85.5839C79.4451 86.4211 80.5261 87.3814 81.4352 88.4511C81.5039 88.5304 81.5039 88.5304 81.574 88.6113C82.4785 89.6609 83.2592 90.8021 83.9163 92.023C83.9705 92.1227 84.0264 92.2214 84.0825 92.3201C85.3187 94.5417 86.0133 97.1221 86.2288 99.6492C86.2337 99.7061 86.2337 99.7061 86.2387 99.7642C86.5007 102.98 85.9279 106.254 84.5965 109.189C84.5407 109.312 84.4865 109.436 84.4325 109.56C83.3735 111.948 81.619 114.242 79.6305 115.937C79.5779 115.983 79.5253 116.029 79.471 116.076C78.7396 116.71 77.9644 117.283 77.1491 117.804C77.1167 117.824 77.0843 117.845 77.0509 117.867C74.2433 119.645 71.0373 120.65 67.7311 120.868C67.6232 120.875 67.6232 120.875 67.5131 120.883C66.7628 120.928 66.0208 120.92 65.2709 120.872C65.215 120.868 65.215 120.868 65.158 120.865C64.3548 120.812 63.5623 120.707 62.7683 120.575C62.7183 120.567 62.6684 120.559 62.6169 120.551C61.2243 120.324 59.8884 119.826 58.595 119.274C58.5211 119.243 58.5211 119.243 58.4457 119.212C56.8806 118.552 55.4557 117.63 54.1248 116.58C53.9595 116.45 53.7916 116.323 53.6243 116.195C53.487 116.08 53.364 115.952 53.2375 115.824C53.1234 115.717 53.0076 115.612 52.8921 115.506C52.3985 115.052 51.9225 114.584 51.4892 114.071C51.4443 114.02 51.3994 113.968 51.3531 113.915C48.0203 110.083 46.4096 104.954 46.7217 99.9041C47.0419 95.6159 48.7898 91.4768 51.6967 88.3119C51.8041 88.1941 51.908 88.0745 52.0109 87.9527C52.4529 87.4431 52.9433 86.9575 53.4631 86.5282C53.4928 86.5033 53.5225 86.4783 53.5532 86.4526C58.1591 82.593 64.1285 80.947 78.2207 85.5102ZM59.0462 88.9601C58.3754 89.7325 57.8651 90.6226 57.3544 91.5051C57.3273 91.5518 57.3002 91.5985 57.2723 91.6466C56.1269 93.6484 55.4799 95.9615 55.1549 98.2353C55.1464 98.2935 55.1379 98.3517 55.1291 98.4117C54.8566 100.364 54.8541 102.451 55.1549 104.4C55.1649 104.466 55.1749 104.531 55.1852 104.599C55.4949 106.579 56.045 108.469 56.9032 110.282C56.925 110.328 56.9468 110.375 56.9693 110.423C57.2581 111.03 57.6108 111.592 57.9817 112.152C58.0032 112.184 58.0246 112.216 58.0466 112.25C58.4659 112.88 58.9259 113.461 59.441 114.014C59.4797 114.056 59.5183 114.098 59.5582 114.141C61.3244 115.985 63.6987 116.888 66.2131 116.966C69.1403 117.02 71.4674 115.994 73.5757 113.983C73.8156 113.749 74.0256 113.501 74.2271 113.233C74.2586 113.192 74.29 113.15 74.3223 113.107C76.4494 110.259 77.5965 106.909 77.9387 103.382C77.944 103.33 77.9493 103.278 77.9548 103.225C78.0105 102.61 78.0088 101.994 78.0092 101.378C78.0092 101.319 78.0093 101.26 78.0093 101.199C78.0087 100.219 77.9625 99.2635 77.8259 98.2919C77.8183 98.2349 77.8108 98.1779 77.803 98.1191C77.5414 96.183 76.9776 94.2829 76.134 92.5232C76.1161 92.4849 76.0982 92.4467 76.0797 92.4073C75.1451 90.4128 73.8499 88.4567 71.9608 87.2634C71.909 87.2293 71.8572 87.1952 71.8039 87.16C67.771 84.5659 62.3644 85.3645 59.0462 88.9601Z" fill="#8B8B8B"/>
<path d="M131.121 83.0859C143.069 83.0859 155.017 83.0859 167.327 83.0859C167.327 87.2479 167.327 91.4099 167.327 95.6979C166.396 95.6979 165.466 95.6979 164.507 95.6979C164.505 95.39 164.503 95.082 164.501 94.7648C164.499 94.5678 164.497 94.3709 164.495 94.174C164.492 93.8625 164.489 93.5511 164.488 93.2396C164.486 92.988 164.484 92.7365 164.481 92.4849C164.48 92.3897 164.479 92.2944 164.479 92.1992C164.472 90.4815 163.919 88.9066 162.709 87.6668C161.6 86.5782 160.076 85.9514 158.527 85.9545C158.468 85.9542 158.409 85.9539 158.348 85.9536C158.153 85.9526 157.958 85.9524 157.763 85.9523C157.622 85.9517 157.482 85.9512 157.341 85.9505C157.039 85.9493 156.737 85.9484 156.436 85.9479C155.999 85.947 155.563 85.9456 155.127 85.944C154.419 85.9414 153.711 85.9394 153.003 85.9376C152.315 85.9359 151.628 85.9339 150.94 85.9317C150.876 85.9315 150.876 85.9315 150.81 85.9313C150.475 85.9302 150.14 85.9291 149.804 85.9279C148.163 85.9225 146.523 85.9182 144.882 85.9137C144.882 90.2063 144.882 94.499 144.882 98.9216C149.07 99.2054 149.07 99.2054 152.568 97.4909C152.797 97.226 152.968 96.9329 153.129 96.624C153.156 96.574 153.156 96.574 153.184 96.5229C153.585 95.7103 153.602 94.859 153.609 93.973C153.613 93.5904 153.618 93.2078 153.623 92.8136C154.46 92.8136 155.298 92.8136 156.161 92.8136C156.161 97.8714 156.161 102.929 156.161 108.14C155.323 108.14 154.486 108.14 153.623 108.14C153.605 106.893 153.605 106.893 153.601 106.504C153.589 105.717 153.555 104.945 153.214 104.22C153.197 104.183 153.18 104.145 153.162 104.106C153.011 103.785 152.831 103.497 152.608 103.22C152.574 103.177 152.541 103.134 152.506 103.09C151.927 102.392 151.077 101.838 150.169 101.709C150.07 101.693 150.07 101.693 150.014 101.636C148.32 101.394 146.593 101.544 144.882 101.523C144.882 106.581 144.882 111.639 144.882 116.85C148.364 116.843 148.364 116.843 151.917 116.836C152.649 116.835 153.38 116.834 154.134 116.833C154.793 116.831 154.793 116.831 155.452 116.829C155.744 116.828 156.036 116.828 156.329 116.828C156.702 116.828 157.076 116.827 157.45 116.825C157.587 116.824 157.723 116.824 157.86 116.825C159.534 116.828 161.061 116.495 162.364 115.379C162.409 115.342 162.454 115.306 162.501 115.267C163.607 114.323 164.278 112.912 164.451 111.477C164.48 111.081 164.478 110.684 164.48 110.288C164.481 110.176 164.482 110.065 164.483 109.953C164.485 109.663 164.487 109.372 164.489 109.082C164.491 108.731 164.494 108.381 164.497 108.031C164.501 107.502 164.504 106.973 164.507 106.444C165.438 106.444 166.368 106.444 167.327 106.444C167.327 110.811 167.327 115.178 167.327 119.678C155.379 119.678 143.431 119.678 131.121 119.678C131.121 118.745 131.121 117.811 131.121 116.85C132.833 116.85 134.545 116.85 136.309 116.85C136.309 106.641 136.309 96.432 136.309 85.9137C134.597 85.9137 132.885 85.9137 131.121 85.9137C131.121 84.9806 131.121 84.0474 131.121 83.0859Z" fill="#8B8B8B"/>
<path d="M173.977 83.1406C180.062 83.1406 186.148 83.1406 192.418 83.1406C192.418 84.0365 192.418 84.9323 192.418 85.8553C192.171 85.8568 191.924 85.8582 191.669 85.8597C191.471 85.8615 191.273 85.8635 191.075 85.8657C190.866 85.8679 190.658 85.8698 190.449 85.8706C190.248 85.8715 190.047 85.8735 189.846 85.8761C189.732 85.8774 189.619 85.8775 189.506 85.8776C189.068 85.8846 188.722 85.9077 188.385 86.2159C188.126 86.5009 188.043 86.8127 188.055 87.1897C188.131 87.6961 188.491 88.0669 188.815 88.4377C188.968 88.6128 189.109 88.7946 189.249 88.98C189.47 89.2725 189.699 89.5566 189.933 89.839C190.2 90.162 190.462 90.4878 190.72 90.8188C190.916 91.071 191.116 91.3196 191.318 91.5675C191.547 91.8481 191.773 92.1303 191.995 92.4158C192.282 92.7841 192.575 93.1467 192.87 93.5089C193.037 93.7152 193.203 93.923 193.368 94.1311C193.558 94.3674 193.749 94.6019 193.94 94.8368C194.179 95.1311 194.413 95.4284 194.645 95.7284C194.76 95.877 194.874 96.02 195.012 96.1485C195.041 96.1121 195.071 96.0758 195.101 96.0383C195.367 95.7108 195.637 95.3866 195.909 95.0647C196.072 94.8728 196.232 94.6791 196.39 94.4837C196.613 94.2086 196.843 93.9396 197.074 93.671C197.288 93.4214 197.496 93.1678 197.703 92.9122C197.874 92.7038 198.048 92.4986 198.222 92.2933C198.384 92.1014 198.544 91.9078 198.702 91.7124C198.926 91.4374 199.155 91.1684 199.386 90.8998C199.6 90.65 199.809 90.3962 200.016 90.1405C200.288 89.8081 200.567 89.4819 200.844 89.1545C201.803 88.1662 201.803 88.1662 202.19 86.9217C202.159 86.5982 202.024 86.3598 201.783 86.1452C201.509 85.9546 201.303 85.8978 200.97 85.8938C200.899 85.8927 200.828 85.8916 200.755 85.8904C200.678 85.8898 200.601 85.8891 200.524 85.8885C200.444 85.8874 200.365 85.8863 200.286 85.8851C200.078 85.8822 199.87 85.88 199.662 85.8779C199.449 85.8756 199.237 85.8727 199.025 85.8699C198.608 85.8644 198.192 85.8599 197.775 85.8553C197.775 84.9595 197.775 84.0636 197.775 83.1406C202.633 83.1406 207.49 83.1406 212.495 83.1406C212.495 84.0365 212.495 84.9323 212.495 85.8553C212.194 85.8585 212.194 85.8585 211.887 85.8617C211.689 85.8643 211.492 85.8672 211.294 85.8702C211.159 85.872 211.023 85.8736 210.887 85.8749C208.872 85.8947 207.62 86.3072 206.182 87.7689C206.005 87.9549 205.837 88.1478 205.671 88.3438C205.62 88.4026 205.57 88.4615 205.52 88.5203C205.404 88.6551 205.289 88.79 205.174 88.925C205.055 89.0638 204.937 89.2024 204.818 89.3408C204.521 89.6864 204.229 90.0345 203.942 90.3886C203.788 90.5764 203.63 90.761 203.471 90.9454C203.228 91.2289 202.989 91.5158 202.754 91.8063C202.61 91.9828 202.463 92.157 202.315 92.331C202.125 92.5555 201.937 92.7812 201.751 93.0097C201.439 93.3945 201.118 93.772 200.797 94.1502C200.488 94.5154 200.181 94.8825 199.88 95.2542C199.708 95.4631 199.534 95.6691 199.359 95.8751C199.197 96.0671 199.037 96.2607 198.879 96.456C198.684 96.6962 198.484 96.932 198.283 97.1665C197.855 97.6646 197.441 98.1723 197.042 98.6935C197.508 99.3252 197.998 99.9367 198.498 100.542C198.729 100.823 198.955 101.107 199.179 101.395C199.375 101.647 199.576 101.896 199.777 102.143C200.032 102.456 200.282 102.771 200.53 103.089C200.758 103.381 200.991 103.668 201.225 103.956C201.421 104.197 201.614 104.44 201.804 104.685C202.035 104.982 202.273 105.275 202.513 105.565C202.778 105.887 203.04 106.212 203.296 106.541C203.492 106.794 203.693 107.042 203.894 107.29C204.149 107.602 204.399 107.917 204.646 108.235C204.874 108.527 205.108 108.815 205.342 109.102C205.538 109.343 205.73 109.586 205.921 109.832C206.152 110.129 206.39 110.421 206.629 110.712C206.895 111.034 207.156 111.358 207.413 111.688C207.639 111.979 207.872 112.265 208.105 112.551C208.307 112.8 208.505 113.052 208.702 113.306C208.956 113.633 209.226 113.941 209.506 114.246C209.572 114.322 209.638 114.397 209.703 114.473C209.935 114.739 210.169 115.004 210.408 115.264C210.479 115.342 210.479 115.342 210.551 115.421C211.464 116.384 212.626 116.874 213.953 116.916C214.053 116.919 214.153 116.921 214.253 116.922C214.301 116.924 214.348 116.925 214.397 116.926C214.571 116.93 214.745 116.933 214.92 116.936C215.31 116.945 215.701 116.953 216.104 116.961C216.104 117.857 216.104 118.753 216.104 119.676C213.591 119.684 211.079 119.693 208.566 119.7C208.27 119.701 207.973 119.702 207.677 119.703C207.618 119.703 207.559 119.703 207.498 119.704C206.542 119.707 205.585 119.71 204.629 119.713C203.648 119.716 202.667 119.72 201.686 119.723C201.081 119.724 200.475 119.726 199.87 119.729C199.455 119.73 199.04 119.731 198.625 119.732C198.386 119.733 198.146 119.734 197.906 119.735C197.687 119.736 197.468 119.736 197.249 119.737C197.169 119.737 197.09 119.737 197.01 119.738C196.903 119.738 196.795 119.738 196.688 119.738C196.598 119.739 196.598 119.739 196.506 119.739C196.366 119.732 196.366 119.732 196.253 119.676C196.253 118.78 196.253 117.884 196.253 116.961C196.511 116.96 196.769 116.96 197.035 116.959C197.199 116.958 197.364 116.956 197.528 116.955C197.789 116.952 198.049 116.95 198.31 116.95C198.52 116.95 198.73 116.948 198.94 116.946C199.02 116.945 199.1 116.945 199.18 116.945C199.664 116.946 200.084 116.923 200.482 116.622C200.703 116.352 200.828 116.086 200.838 115.735C200.84 115.689 200.843 115.643 200.845 115.596C200.783 115.18 200.517 114.863 200.253 114.55C200.187 114.471 200.121 114.391 200.056 114.311C200.023 114.272 199.99 114.232 199.957 114.192C199.819 114.024 199.685 113.853 199.552 113.681C199.33 113.395 199.104 113.113 198.875 112.833C198.647 112.552 198.421 112.27 198.198 111.984C197.883 111.579 197.559 111.181 197.236 110.783C196.98 110.467 196.728 110.149 196.478 109.829C196.226 109.507 195.972 109.187 195.713 108.872C195.289 108.354 194.868 107.834 194.457 107.306C194.26 107.053 194.058 106.804 193.856 106.555C193.62 106.264 193.385 105.973 193.155 105.678C193.116 105.629 193.116 105.629 193.077 105.58C192.937 105.401 192.801 105.219 192.668 105.035C192.6 104.947 192.6 104.947 192.531 104.858C192.493 104.858 192.456 104.858 192.418 104.858C192.34 104.943 192.267 105.033 192.196 105.123C192.15 105.18 192.105 105.237 192.059 105.295C192.034 105.326 192.01 105.356 191.985 105.387C191.86 105.543 191.73 105.695 191.6 105.848C191.41 106.072 191.222 106.298 191.036 106.527C190.724 106.911 190.403 107.289 190.082 107.667C189.773 108.032 189.466 108.399 189.165 108.771C188.993 108.98 188.819 109.186 188.644 109.392C188.482 109.584 188.322 109.778 188.164 109.973C187.94 110.248 187.711 110.517 187.48 110.786C187.266 111.035 187.057 111.289 186.85 111.544C186.706 111.721 186.559 111.895 186.412 112.069C186.222 112.294 186.033 112.519 185.848 112.748C185.662 112.976 185.474 113.202 185.284 113.426C185.05 113.703 184.818 113.982 184.59 114.263C184.504 114.37 184.416 114.476 184.328 114.581C184.283 114.635 184.238 114.689 184.191 114.745C184.151 114.793 184.11 114.841 184.068 114.891C183.843 115.193 183.699 115.503 183.747 115.887C183.834 116.294 184.03 116.556 184.366 116.793C184.599 116.921 184.833 116.913 185.095 116.916C185.155 116.917 185.155 116.917 185.217 116.918C185.349 116.92 185.482 116.921 185.614 116.922C185.706 116.924 185.798 116.925 185.89 116.926C186.132 116.929 186.374 116.932 186.616 116.935C186.906 116.938 187.196 116.942 187.486 116.945C187.927 116.951 188.368 116.956 188.809 116.961C188.809 117.857 188.809 118.753 188.809 119.676C183.616 119.676 178.424 119.676 173.074 119.676C173.074 118.78 173.074 117.884 173.074 116.961C173.277 116.958 173.479 116.956 173.688 116.953C173.887 116.95 174.085 116.946 174.284 116.943C174.421 116.941 174.557 116.939 174.694 116.937C176.485 116.914 177.91 116.702 179.221 115.378C179.259 115.322 179.296 115.266 179.334 115.208C179.371 115.208 179.409 115.208 179.447 115.208C179.47 115.157 179.47 115.157 179.493 115.106C179.558 114.985 179.623 114.901 179.717 114.802C179.748 114.77 179.779 114.737 179.81 114.703C179.843 114.669 179.875 114.635 179.909 114.6C179.976 114.528 180.043 114.457 180.11 114.385C180.142 114.351 180.174 114.317 180.207 114.282C180.372 114.105 180.53 113.921 180.688 113.737C180.744 113.673 180.8 113.608 180.856 113.543C181.177 113.174 181.494 112.803 181.802 112.422C181.945 112.246 182.092 112.073 182.238 111.899C182.428 111.676 182.615 111.452 182.799 111.224C183.022 110.949 183.252 110.68 183.482 110.412C183.696 110.162 183.905 109.908 184.112 109.653C184.256 109.476 184.403 109.302 184.551 109.128C184.741 108.904 184.929 108.678 185.115 108.449C185.326 108.189 185.542 107.932 185.758 107.677C185.921 107.485 186.081 107.291 186.239 107.096C186.462 106.821 186.692 106.552 186.922 106.283C187.137 106.033 187.345 105.78 187.552 105.524C187.723 105.316 187.897 105.111 188.071 104.905C188.233 104.713 188.393 104.52 188.551 104.324C188.746 104.084 188.945 103.848 189.147 103.614C189.557 103.136 189.96 102.653 190.331 102.143C190.268 102.06 190.205 101.976 190.141 101.892C190.106 101.846 190.07 101.799 190.034 101.751C189.946 101.63 189.946 101.63 189.824 101.578C189.8 101.539 189.777 101.5 189.753 101.459C189.626 101.248 189.473 101.065 189.316 100.874C189.25 100.793 189.183 100.712 189.117 100.631C189.084 100.59 189.051 100.55 189.017 100.508C188.879 100.338 188.745 100.167 188.611 99.9943C188.358 99.6696 188.1 99.3497 187.84 99.0305C187.645 98.7895 187.452 98.5464 187.261 98.3012C187.03 98.0037 186.793 97.7116 186.553 97.421C186.152 96.9355 185.762 96.4426 185.38 95.942C185.354 95.9084 185.329 95.8749 185.302 95.8403C185.232 95.7479 185.162 95.6554 185.092 95.5629C184.984 95.4203 184.984 95.4203 184.89 95.3298C184.757 95.1956 184.645 95.0435 184.53 94.8937C184.207 94.4795 183.878 94.0718 183.547 93.6649C183.447 93.5423 183.348 93.4194 183.249 93.2964C183.216 93.2555 183.184 93.2146 183.15 93.1725C183.087 93.0943 183.024 93.016 182.961 92.9377C182.843 92.7919 182.728 92.6524 182.595 92.521C182.478 92.4014 182.409 92.2765 182.323 92.133C182.214 91.9897 182.099 91.8512 181.985 91.7124C181.918 91.6312 181.852 91.55 181.786 91.4687C181.752 91.4282 181.719 91.3877 181.685 91.3459C181.548 91.1764 181.414 91.0045 181.28 90.8323C181.027 90.5076 180.769 90.1875 180.509 89.8687C180.364 89.6901 180.22 89.511 180.08 89.328C179.744 88.8888 179.386 88.482 179.005 88.0811C178.867 87.9354 178.734 87.7867 178.604 87.6333C178.458 87.4629 178.301 87.3191 178.128 87.1767C178.037 87.0995 178.037 87.0995 177.903 86.9582C176.975 86.072 175.764 85.9132 174.54 85.8776C174.476 85.8755 174.411 85.8734 174.345 85.8712C174.287 85.8695 174.228 85.8678 174.168 85.866C174.033 85.8553 174.033 85.8553 173.977 85.7988C173.977 84.9216 173.977 84.0444 173.977 83.1406Z" fill="#8B8B8B"/>
<path d="M91.1367 83.0859C97.4643 83.0859 103.792 83.0859 110.311 83.0859C110.311 84.0191 110.311 84.9523 110.311 85.9137C108.562 85.9137 106.812 85.9137 105.01 85.9137C105.01 96.1227 105.01 106.332 105.01 116.85C111.75 117.539 111.75 117.539 119.616 115.945C119.672 115.914 119.728 115.883 119.785 115.852C120.905 115.185 121.747 114.077 122.204 112.866C122.219 112.826 122.234 112.786 122.25 112.744C122.569 111.848 122.575 110.947 122.578 110.008C122.579 109.874 122.58 109.74 122.581 109.605C122.584 109.255 122.585 108.904 122.587 108.553C122.589 108.131 122.592 107.708 122.595 107.286C122.599 106.647 122.602 106.008 122.605 105.369C123.536 105.369 124.466 105.369 125.425 105.369C125.425 110.072 125.425 114.775 125.425 119.621C114.11 119.621 102.795 119.621 91.1367 119.621C91.1367 118.707 91.1367 117.792 91.1367 116.85C92.8861 116.85 94.6355 116.85 96.4379 116.85C96.4379 106.641 96.4379 96.432 96.4379 85.9137C94.7071 85.9137 92.9763 85.9137 91.1931 85.9137C91.1745 85.8951 91.1559 85.8764 91.1367 85.8572C91.1367 84.9427 91.1367 84.0282 91.1367 83.0859Z" fill="#8B8B8B"/>
</g>
<defs>
<clipPath id="clip0_203_1924">
<rect width="216.558" height="122.161" fill="white"/>
</clipPath>
</defs>
</svg>
