<svg width="49" height="49" viewBox="0 0 49 49" fill="none" xmlns="http://www.w3.org/2000/svg">
<path d="M16.2258 32.462H30.9621C40.067 32.462 41.4517 26.7422 43.131 18.3999C43.6155 15.9937 43.8578 14.7906 43.2753 13.9891C42.6928 13.1875 41.5763 13.1875 39.3433 13.1875H12.168" stroke="white" stroke-width="3.04335" stroke-linecap="round"/>
<path d="M16.2293 32.4603L10.911 7.12931C10.4594 5.32289 8.83632 4.05566 6.97433 4.05566H5.07031" stroke="white" stroke-width="3.04335" stroke-linecap="round"/>
<path d="M18.0112 32.459H17.1764C14.4103 32.459 12.168 34.7949 12.168 37.6761C12.168 38.1563 12.5417 38.5457 13.0027 38.5457H35.5003" stroke="white" stroke-width="3.04335" stroke-linecap="round" stroke-linejoin="round"/>
<path d="M21.3012 44.6306C22.982 44.6306 24.3445 43.2681 24.3445 41.5873C24.3445 39.9065 22.982 38.5439 21.3012 38.5439C19.6204 38.5439 18.2578 39.9065 18.2578 41.5873C18.2578 43.2681 19.6204 44.6306 21.3012 44.6306Z" stroke="white" stroke-width="3.04335"/>
<path d="M35.5043 44.6306C37.1851 44.6306 38.5476 43.2681 38.5476 41.5873C38.5476 39.9065 37.1851 38.5439 35.5043 38.5439C33.8235 38.5439 32.4609 39.9065 32.4609 41.5873C32.4609 43.2681 33.8235 44.6306 35.5043 44.6306Z" stroke="white" stroke-width="3.04335"/>
</svg>
