<svg width="49" height="49" viewBox="0 0 49 49" fill="none" xmlns="http://www.w3.org/2000/svg">
<path d="M24.3476 44.6337C35.5529 44.6337 44.6366 35.55 44.6366 24.3447C44.6366 13.1394 35.5529 4.05566 24.3476 4.05566C13.1423 4.05566 4.05859 13.1394 4.05859 24.3447C4.05859 35.55 13.1423 44.6337 24.3476 44.6337Z" stroke="white" stroke-width="3.04335"/>
<path d="M15.2148 34.496C19.9456 29.541 28.6932 29.3077 33.4749 34.496M29.4072 19.2793C29.4072 22.0806 27.133 24.3515 24.3276 24.3515C21.5225 24.3515 19.2482 22.0806 19.2482 19.2793C19.2482 16.478 21.5225 14.207 24.3276 14.207C27.133 14.207 29.4072 16.478 29.4072 19.2793Z" stroke="white" stroke-width="3.04335" stroke-linecap="round"/>
</svg>
